<?xml version="1.0" encoding="UTF-8"?>
<svg width="1346px" height="281px" viewBox="0 0 1346 281" version="1.1" xmlns="http://www.w3.org/2000/svg" xmlns:xlink="http://www.w3.org/1999/xlink">
    <!-- Generator: Sketch 63.1 (92452) - https://sketch.com -->
    <title>cymatic_name_blk</title>
    <desc>Created with Sketch.</desc>
    <defs>
        <path d="M574.459502,242.515096 C589.373239,242.515096 601.615264,238.58728 611.185577,230.731649 C620.755889,222.876017 626.737334,210.454549 629.129913,193.467245 L629.129913,193.467245 L608.194854,193.467245 C606.201039,202.957804 602.592233,210.434611 597.368438,215.897664 C592.144642,221.360718 585.066599,224.092245 576.134307,224.092245 C564.490427,224.092245 555.956898,219.705851 550.533721,210.933065 C545.110544,202.160278 542.398955,191.353801 542.398955,178.513631 C542.398955,165.753215 544.313018,155.026489 548.141143,146.333455 C554.042836,132.935018 563.852406,126.235799 577.569854,126.235799 C587.618682,126.235799 594.916045,128.847697 599.461944,134.071493 C604.007842,139.295288 606.918812,145.85494 608.194854,153.750448 L608.194854,153.750448 L629.129913,153.750448 C627.295603,136.603638 621.852487,124.521118 612.800567,117.502889 C603.748646,110.48466 592.005075,106.975545 577.569854,106.975545 C560.662302,106.975545 546.745472,113.236125 535.819366,125.757284 C524.893259,138.278442 519.430205,155.784139 519.430205,178.274373 C519.430205,196.617472 524.414743,211.910034 534.383819,224.152059 C544.352894,236.394084 557.711455,242.515096 574.459502,242.515096 Z M662.027862,291.32369 C674.469268,291.32369 683.242054,287.734823 688.346221,280.557088 C693.450388,273.379354 702.223174,253.441203 714.66458,220.742635 C719.928252,206.865682 726.467966,188.921346 734.283721,166.909627 C744.731312,137.640422 751.470407,118.89856 754.501006,110.684041 L754.501006,110.684041 L730.694854,110.684041 L696.1221,215.000448 L661.788604,110.684041 L637.384307,110.684041 L684.757354,242.515096 C683.640817,245.38619 681.846384,249.772583 679.374053,255.674276 C676.901722,261.575968 675.466176,264.845825 675.067413,265.483846 C673.791371,267.397909 672.216257,269.012899 670.342071,270.328817 C668.467885,271.644735 665.536976,272.302694 661.549346,272.302694 C660.273304,272.302694 658.797881,272.183065 657.123077,271.943807 C655.448272,271.704549 652.736683,271.066528 648.988311,270.029745 L648.988311,270.029745 L648.988311,289.648885 C651.380889,290.286906 653.394642,290.725545 655.029571,290.964803 C656.664499,291.204061 658.997263,291.32369 662.027862,291.32369 Z M794.696319,238.8066 L794.696319,170.857381 C794.696319,154.348592 798.02599,142.94397 804.685332,136.643514 C811.344675,130.343058 818.741729,127.19283 826.876495,127.19283 C835.808786,127.19283 841.90986,130.183553 845.179717,136.164998 C847.253285,140.152629 848.290069,146.492961 848.290069,155.185995 L848.290069,155.185995 L848.290069,238.8066 L870.182159,238.8066 L870.182159,164.277791 C870.182159,151.038859 873.232696,141.588176 879.33377,135.925741 C885.434844,130.263306 892.712269,127.432088 901.166045,127.432088 C907.306996,127.432088 912.510853,129.02714 916.777618,132.217245 C921.044382,135.407349 923.177764,141.269165 923.177764,149.802694 L923.177764,149.802694 L923.177764,238.8066 L945.54837,238.8066 L945.54837,153.51119 C945.54837,142.18632 943.873565,133.174276 940.523955,126.475057 C934.303252,114.033651 922.57962,107.812948 905.353057,107.812948 C897.298044,107.812948 890.040557,109.467814 883.580596,112.777547 C877.120635,116.08728 871.498077,121.171509 866.71292,128.030233 C863.841827,122.447551 860.651722,118.220663 857.142608,115.349569 C850.921905,110.325155 842.707386,107.812948 832.499053,107.812948 C823.487009,107.812948 815.431996,110.245402 808.334014,115.110311 C804.186879,117.981405 799.561228,122.567179 794.457061,128.867635 L794.457061,128.867635 L794.457061,110.684041 L773.163116,110.684041 L773.163116,238.8066 L794.696319,238.8066 Z M1011.70315,243.113241 C1021.59248,243.113241 1030.6444,240.999797 1038.85892,236.772909 C1047.07343,232.546021 1053.37389,227.561483 1057.76028,221.819295 C1058.47806,226.923462 1059.71422,230.871216 1061.46878,233.662557 C1064.81839,238.926229 1070.20169,241.558065 1077.61868,241.558065 C1080.64928,241.558065 1083.04186,241.438436 1084.79642,241.199178 C1086.55097,240.95992 1089.10306,240.361776 1092.45267,239.404745 L1092.45267,239.404745 L1092.45267,223.4941 C1091.09687,223.733358 1089.82083,223.912801 1088.62454,224.03243 C1087.42825,224.152059 1086.35159,224.211873 1085.39456,224.211873 C1082.44371,224.211873 1080.50971,223.533976 1079.59256,222.178182 C1078.6754,220.822388 1078.21683,219.027954 1078.21683,216.794881 L1078.21683,216.794881 L1078.21683,142.983846 C1078.21683,130.86145 1073.5513,121.929159 1064.22024,116.186971 C1054.80944,110.444784 1042.56741,107.57369 1027.49417,107.57369 C1014.4945,107.57369 1003.06994,110.664103 993.220489,116.84493 C983.371042,123.025757 978.246937,134.011678 977.848174,149.802694 L977.848174,149.802694 L997.94583,149.802694 C998.743357,143.183228 1000.45804,138.19869 1003.08987,134.84908 C1007.79528,128.787883 1015.77054,125.757284 1027.01565,125.757284 C1036.74547,125.757284 1044.22228,127.41215 1049.44607,130.721883 C1054.66987,134.031616 1057.28177,139.355103 1057.28177,146.692342 C1057.28177,150.281209 1056.80325,153.032674 1055.84622,154.946737 C1054.17142,158.455851 1050.86168,160.529419 1045.91702,161.16744 L1045.91702,161.16744 L1011.58353,165.47408 C999.540883,166.98938 989.811065,171.016886 982.394073,177.5566 C974.97708,184.096314 971.268584,193.307739 971.268584,205.190877 C971.268584,216.037232 975.036895,225.069214 982.573516,232.286825 C990.110137,239.504435 999.820017,243.113241 1011.70315,243.113241 Z M1016.72757,224.810018 C1010.50687,224.810018 1005.12356,223.015584 1000.57767,219.426717 C996.031768,215.83785 993.758819,210.933065 993.758819,204.712362 C993.758819,196.497843 997.068552,190.516398 1003.68802,186.768026 C1007.5959,184.534953 1013.45771,182.900024 1021.27347,181.863241 L1021.27347,181.863241 L1034.31302,180.188436 C1038.30065,179.70992 1042.36803,178.912394 1046.51517,177.795858 C1050.6623,176.679321 1054.05179,175.283651 1056.68362,173.608846 L1056.68362,173.608846 L1056.68362,190.955038 C1056.68362,204.19397 1050.70218,213.724406 1038.73929,219.546346 C1031.64131,223.055461 1024.30407,224.810018 1016.72757,224.810018 Z M1143.65384,240.840291 C1146.76419,240.840291 1149.65522,240.680786 1152.32693,240.361776 C1154.99865,240.042765 1157.57067,239.524373 1160.043,238.8066 L1160.043,238.8066 L1160.043,221.819295 C1158.44795,221.978801 1157.05228,222.078491 1155.85599,222.118368 C1154.6597,222.158244 1153.54316,222.178182 1152.50638,222.178182 C1148.5985,222.178182 1145.80716,221.739543 1144.13235,220.862264 C1141.10175,219.346965 1139.58646,216.356242 1139.58646,211.890096 L1139.58646,211.890096 L1139.58646,128.269491 L1160.043,128.269491 L1160.043,110.684041 L1139.58646,110.684041 L1139.58646,74.9149984 L1117.81399,74.9149984 L1117.81399,110.684041 L1100.4678,110.684041 L1100.4678,128.269491 L1117.81399,128.269491 L1117.81399,213.086385 C1117.81399,221.300903 1119.60843,227.980184 1123.1973,233.124227 C1126.78616,238.26827 1133.60501,240.840291 1143.65384,240.840291 Z M1203.46829,87.4760336 L1203.46829,63.0717367 L1181.5762,63.0717367 L1181.5762,87.4760336 L1203.46829,87.4760336 Z M1203.46829,238.8066 L1203.46829,111.282186 L1181.5762,111.282186 L1181.5762,238.8066 L1203.46829,238.8066 Z M1282.30374,242.515096 C1297.21748,242.515096 1309.4595,238.58728 1319.02981,230.731649 C1328.60013,222.876017 1334.58157,210.454549 1336.97415,193.467245 L1336.97415,193.467245 L1316.03909,193.467245 C1314.04528,202.957804 1310.43647,210.434611 1305.21268,215.897664 C1299.98888,221.360718 1292.91084,224.092245 1283.97855,224.092245 C1272.33467,224.092245 1263.80114,219.705851 1258.37796,210.933065 C1252.95478,202.160278 1250.24319,191.353801 1250.24319,178.513631 C1250.24319,165.753215 1252.15726,155.026489 1255.98538,146.333455 C1261.88707,132.935018 1271.69664,126.235799 1285.41409,126.235799 C1295.46292,126.235799 1302.76028,128.847697 1307.30618,134.071493 C1311.85208,139.295288 1314.76305,145.85494 1316.03909,153.750448 L1316.03909,153.750448 L1336.97415,153.750448 C1335.13984,136.603638 1329.69673,124.521118 1320.64481,117.502889 C1311.59288,110.48466 1299.84931,106.975545 1285.41409,106.975545 C1268.50654,106.975545 1254.58971,113.236125 1243.6636,125.757284 C1232.7375,138.278442 1227.27444,155.784139 1227.27444,178.274373 C1227.27444,196.617472 1232.25898,211.910034 1242.22806,224.152059 C1252.19713,236.394084 1265.55569,242.515096 1282.30374,242.515096 Z" id="path-1"></path>
    </defs>
    <g id="Page-1" stroke="none" stroke-width="1" fill="none" fill-rule="evenodd">
        <g id="cymatic_name_blk" transform="translate(9.000000, -29.000000)" fill-rule="nonzero">
            <g id="Group" transform="translate(0.000000, 33.000000)">
                <polygon id="Path" stroke="#FFFFFF" stroke-width="8" fill="#000000" points="245.53 270.47 491 0 0.06 0"></polygon>
                <polygon id="Path" fill="#F15A24" points="245.22 232.65 330.26 131.38 160.18 131.38"></polygon>
                <polygon id="Path" fill="#F15A24" points="244.62 98.53 171.84 138.42 317.39 138.42"></polygon>
                <polygon id="Path" fill="#FFFFFF" points="76.79 27.43 149.21 113.68 185.28 57.63"></polygon>
                <polygon id="Path" fill="#FFFFFF" points="410.89 27.43 302.39 57.63 338.47 113.68"></polygon>
            </g>
            <g id="cymatic" fill="#000000">
                <use xlink:href="#path-1"></use>
                <use xlink:href="#path-1"></use>
            </g>
        </g>
    </g>
</svg>