<?xml version="1.0" encoding="UTF-8"?>
<svg width="143px" height="131px" viewBox="0 0 143 131" version="1.1" xmlns="http://www.w3.org/2000/svg" xmlns:xlink="http://www.w3.org/1999/xlink">
    <!-- Generator: Sketch 63.1 (92452) - https://sketch.com -->
    <title>avatar-placeholder</title>
    <desc>Created with Sketch.</desc>
    <g id="Page-1" stroke="none" stroke-width="1" fill="none" fill-rule="evenodd">
        <g id="avatar-placeholder" fill="#E0DFDF" fill-rule="nonzero">
            <path d="M100.68731,41.689353 C98.19435,65.640493 89.104981,82.26875 70.372196,82.26875 C51.639402,82.26875 42.988823,67.308034 40.057005,42.289941 C37.623314,19.938838 51.639402,0.800152 70.372196,0.800152 C89.104981,0.800152 102.82414,19.294123 100.68731,41.689353 Z" id="Path"></path>
            <path d="M88.5675,71.1562494 C86.79484,75.0303794 85.39893,84.0018494 90.86478,88.4553494 C99.9375,95.8477494 102.7064,98.0237494 114.3117,100.497649 C140.0432,105.982849 137.6492,119.705749 142.5244,130.772049 L0.268444,130.653749 C4.472223,120.203249 2.505799,106.332649 28.40051,99.9384494 C37.80992,97.6149494 41.66513,95.4337494 49.58659,88.5672494 C54.52744,84.2843494 53.52583,75.5441194 52.43084,70.8207094 C48.49275,70.3815594 90.1739,69.6919894 88.5675,71.1562494 Z" id="Path"></path>
        </g>
    </g>
</svg>