<svg id="Layer_1" data-name="Layer 1" xmlns="http://www.w3.org/2000/svg" viewBox="0 0 190 190"><defs><style>.cls-1{fill:#050708;}.cls-2{fill:#75b850;}</style></defs><circle class="cls-1" cx="95" cy="95" r="95"/><polygon class="cls-2" points="94.6 94.69 94.6 95.31 95.4 94.85 94.6 94.69"/><polygon class="cls-2" points="93.16 95.38 96.84 95.38 93.16 94.62 93.16 95.38"/><path class="cls-2" d="M154.37,129.63v24l-56.79-11.8,74.79-46.2v-14l-106-20v32s-27.66,0-38.09,0a94.8,94.8,0,0,0-3.25,16H82.37l-.11-26.11L140.43,95,66.37,137.63v18l106,20v-30H211a95,95,0,0,0,2.92-16Z" transform="translate(-24.48 -23.63)"/></svg>