<?xml version="1.0" encoding="iso-8859-1"?>
<!-- Generator: Adobe Illustrator 19.0.0, SVG Export Plug-In . SVG Version: 6.00 Build 0)  -->
<svg version="1.1" id="Layer_1" xmlns="http://www.w3.org/2000/svg" xmlns:xlink="http://www.w3.org/1999/xlink" x="0px" y="0px"
	 viewBox="0 0 512 512" style="enable-background:new 0 0 512 512;" xml:space="preserve">
<path style="fill:#43D3E8;" d="M468.992,110.14v281.234H365.691c8.722-21.294,13.476-44.559,13.476-68.974V216.923L256,159.579
	l-123.167,57.344v105.475c0,24.415,4.751,47.68,13.481,68.974H43.008V110.14H468.992z"/>
<g>
	<path style="fill:#242D3C;" d="M512,87.61H0V5.69h512V87.61z M20.48,67.13h471.04V26.17H20.48V67.13z"/>
	<rect x="49.152" y="36.41" style="fill:#242D3C;" width="20.48" height="20.48"/>
	<rect x="90.112" y="36.41" style="fill:#242D3C;" width="20.48" height="20.48"/>
	<rect x="131.072" y="36.41" style="fill:#242D3C;" width="20.48" height="20.48"/>
	<polygon style="fill:#242D3C;" points="512,434.382 348.324,434.382 348.324,413.902 491.52,413.902 491.52,87.612 20.48,87.612 
		20.48,413.902 163.676,413.902 163.676,434.382 0,434.382 0,67.132 512,67.132 	"/>
</g>
<path style="fill:#F96232;" d="M323.599,324.599c0,37.335-30.313,67.581-67.597,67.581c-37.356,0-67.571-30.246-67.571-67.581
	c0-37.345,30.216-67.587,67.571-67.587C293.286,257.012,323.599,287.254,323.599,324.599z"/>
<polygon style="fill:#FFFFFF;" points="249.144,358.9 216.008,325.766 230.487,311.287 249.144,329.934 281.546,297.535 
	296.026,312.014 "/>
<g>
	<path style="fill:#242D3C;" d="M255.98,506.31l-3.356-1.16c-77.768-26.959-130.02-100.401-130.02-182.753v-111.99l133.376-62.106
		l133.42,62.106v111.99c0,82.353-52.273,155.791-130.068,182.753L255.98,506.31z M143.084,223.464v98.934
		c0,72.44,45.22,137.167,112.896,162.199c67.699-25.032,112.939-89.761,112.939-162.199v-98.934L255.98,170.897L143.084,223.464z"/>
	<rect x="245.734" y="159.589" style="fill:#242D3C;" width="20.48" height="49.152"/>
	<rect x="245.734" y="446.309" style="fill:#242D3C;" width="20.48" height="49.152"/>
</g>
<g>
</g>
<g>
</g>
<g>
</g>
<g>
</g>
<g>
</g>
<g>
</g>
<g>
</g>
<g>
</g>
<g>
</g>
<g>
</g>
<g>
</g>
<g>
</g>
<g>
</g>
<g>
</g>
<g>
</g>
</svg>
