<?xml version="1.0" encoding="UTF-8" standalone="no"?>
<!-- Generator: Adobe Illustrator 19.0.0, SVG Export Plug-In . SVG Version: 6.00 Build 0)  -->

<svg
   xmlns:dc="http://purl.org/dc/elements/1.1/"
   xmlns:cc="http://creativecommons.org/ns#"
   xmlns:rdf="http://www.w3.org/1999/02/22-rdf-syntax-ns#"
   xmlns:svg="http://www.w3.org/2000/svg"
   xmlns="http://www.w3.org/2000/svg"
   xmlns:sodipodi="http://sodipodi.sourceforge.net/DTD/sodipodi-0.dtd"
   xmlns:inkscape="http://www.inkscape.org/namespaces/inkscape"
   version="1.1"
   id="Layer_1"
   x="0px"
   y="0px"
   viewBox="0 0 512 389.66199"
   xml:space="preserve"
   sodipodi:docname="empty-email.svg"
   inkscape:version="0.92.3 (2405546, 2018-03-11)"
   width="512"
   height="389.66199"><metadata
   id="metadata61"><rdf:RDF><cc:Work
       rdf:about=""><dc:format>image/svg+xml</dc:format><dc:type
         rdf:resource="http://purl.org/dc/dcmitype/StillImage" /></cc:Work></rdf:RDF></metadata><defs
   id="defs59" /><sodipodi:namedview
   pagecolor="#ffffff"
   bordercolor="#666666"
   borderopacity="1"
   objecttolerance="10"
   gridtolerance="10"
   guidetolerance="10"
   inkscape:pageopacity="0"
   inkscape:pageshadow="2"
   inkscape:window-width="1920"
   inkscape:window-height="1027"
   id="namedview57"
   showgrid="false"
   inkscape:zoom="0.4609375"
   inkscape:cx="256"
   inkscape:cy="194.831"
   inkscape:window-x="1358"
   inkscape:window-y="-8"
   inkscape:window-maximized="1"
   inkscape:current-layer="Layer_1" />
<path
   style="fill:#242d3c"
   d="M 470.205,353.065 H 41.807 V 95.631 c 0,-5.939 2.322,-11.523 6.536,-15.726 4.142,-4.186 9.736,-6.52 15.706,-6.52 h 383.898 c 5.921,0 11.507,2.312 15.729,6.515 4.221,4.239 6.531,9.812 6.531,15.729 V 353.065 Z M 58.875,336 H 453.138 V 95.631 c 0,-1.372 -0.54,-2.668 -1.528,-3.666 -0.97,-0.965 -2.286,-1.51 -3.663,-1.51 H 64.049 c -1.372,0 -2.66,0.53 -3.612,1.495 -1.021,1.019 -1.564,2.312 -1.564,3.681 V 336 Z"
   id="path2"
   inkscape:connector-curvature="0" />
<rect
   x="83.343002"
   y="114.91"
   style="fill:#43d3e8"
   width="345.31799"
   height="229.606"
   id="rect4" />
<path
   style="fill:#242d3c"
   d="M 485.166,389.662 H 26.834 c -7.137,0 -13.873,-2.783 -18.959,-7.836 C 2.793,376.76 0,370.017 0,362.831 V 336 h 512 v 26.831 c 0,7.176 -2.788,13.916 -7.852,18.982 -5.091,5.062 -11.827,7.849 -18.982,7.849 z M 17.065,353.065 v 9.766 c 0,2.614 1.014,5.066 2.849,6.899 1.853,1.841 4.316,2.86 6.922,2.86 h 458.33 c 2.609,0 5.071,-1.014 6.932,-2.867 1.825,-1.825 2.834,-4.278 2.834,-6.892 v -9.766 z"
   id="path6"
   inkscape:connector-curvature="0" />
<polygon
   style="fill:#f96232"
   points="145.068,216.476 366.935,216.476 366.935,69.701 256,143.091 145.068,69.701 "
   id="polygon8"
   transform="translate(0,-61.169)" />
<g
   id="g24"
   transform="translate(0,-61.169)">
	<path
   style="fill:#242d3c"
   d="M 375.47,225.009 H 136.532 V 61.169 h 238.935 v 163.84 z M 153.6,207.944 H 358.4 V 78.234 H 153.6 Z"
   id="path10"
   inkscape:connector-curvature="0" />
	<polygon
   style="fill:#242d3c"
   points="149.773,62.582 256,132.854 362.227,62.582 371.645,76.818 256,153.318 140.357,76.818 "
   id="polygon12" />
	
		<rect
   x="293.56"
   y="185.86301"
   transform="matrix(-0.834,-0.5517,0.5517,-0.834,504.504,540.5598)"
   style="fill:#242d3c"
   width="79.997002"
   height="17.066999"
   id="rect14" />
	
		<rect
   x="169.89101"
   y="154.39301"
   transform="matrix(-0.5518,-0.834,0.834,-0.5518,114.7553,450.46)"
   style="fill:#242d3c"
   width="17.065001"
   height="80.001999"
   id="rect16" />
	
	
	
</g>
<g
   id="g26"
   transform="translate(0,-61.169)">
</g>
<g
   id="g28"
   transform="translate(0,-61.169)">
</g>
<g
   id="g30"
   transform="translate(0,-61.169)">
</g>
<g
   id="g32"
   transform="translate(0,-61.169)">
</g>
<g
   id="g34"
   transform="translate(0,-61.169)">
</g>
<g
   id="g36"
   transform="translate(0,-61.169)">
</g>
<g
   id="g38"
   transform="translate(0,-61.169)">
</g>
<g
   id="g40"
   transform="translate(0,-61.169)">
</g>
<g
   id="g42"
   transform="translate(0,-61.169)">
</g>
<g
   id="g44"
   transform="translate(0,-61.169)">
</g>
<g
   id="g46"
   transform="translate(0,-61.169)">
</g>
<g
   id="g48"
   transform="translate(0,-61.169)">
</g>
<g
   id="g50"
   transform="translate(0,-61.169)">
</g>
<g
   id="g52"
   transform="translate(0,-61.169)">
</g>
<g
   id="g54"
   transform="translate(0,-61.169)">
</g>
</svg>