<svg width="24" height="24" viewBox="0 0 24 24" fill="none" xmlns="http://www.w3.org/2000/svg">
<rect x="1" y="1" width="22" height="22" rx="1" stroke="#403E3E" stroke-width="0.7"/>
<line x1="5" y1="13.65" x2="19" y2="13.65" stroke="#403E3E" stroke-width="0.7"/>
<line x1="8" y1="11.65" x2="16" y2="11.65" stroke="#403E3E" stroke-width="0.7"/>
<line x1="9" y1="15.65" x2="15" y2="15.65" stroke="#43D3E8" stroke-width="0.7"/>
<rect x="7" y="19" width="10" height="2" rx="1" stroke="#F15A24" stroke-width="0.7"/>
<path d="M23 3.72727L20.2727 1H18L23 6V3.72727Z" fill="#F15A24" stroke="#F15A24" stroke-width="0.7"/>
<path d="M11.6424 3.03153L10.8287 4.68138L9.0081 4.9468C8.68162 4.99415 8.55078 5.39664 8.78754 5.62717L10.1047 6.91066L9.79315 8.72374C9.73707 9.05146 10.0822 9.29694 10.3713 9.14367L12 8.2876L13.6287 9.14367C13.9178 9.2957 14.2629 9.05146 14.2068 8.72374L13.8953 6.91066L15.2125 5.62717C15.4492 5.39664 15.3184 4.99415 14.9919 4.9468L13.1713 4.68138L12.3576 3.03153C12.2118 2.73745 11.7894 2.73372 11.6424 3.03153Z" fill="#F15A24"/>
</svg>
