<?xml version="1.0" encoding="iso-8859-1"?>
<!-- Generator: Adobe Illustrator 19.0.0, SVG Export Plug-In . SVG Version: 6.00 Build 0)  -->
<svg version="1.1" id="Capa_1" xmlns="http://www.w3.org/2000/svg" xmlns:xlink="http://www.w3.org/1999/xlink" x="0px" y="0px"
	 viewBox="0 0 496 496" style="enable-background:new 0 0 496 496;" xml:space="preserve">
<g>
	<polygon style="fill:#403E3E;" points="496,472 0,472 0,120 16,120 16,456 480,456 480,120 496,120 	"/>
	<rect x="32" y="56" style="fill:#403E3E;" width="16" height="16"/>
	<rect x="64" y="56" style="fill:#403E3E;" width="16" height="16"/>
	<rect x="96" y="56" style="fill:#403E3E;" width="16" height="16"/>
</g>
<g>
	<polygon style="fill:#F96232;" points="496,104 0,104 0,24 496,24 496,72 128,72 128,56 480,56 480,40 16,40 16,88 496,88 	"/>
	<path style="fill:#F96232;" d="M144,368H32V256h112V368z M48,352h80v-80H48V352z"/>
	<path style="fill:#F96232;" d="M128,264h-16v-32c0-6.12-2.576-12.064-7.256-16.736c-9.36-9.368-24.128-9.36-33.48,0
		C66.576,219.936,64,225.88,64,232v32H48v-32c0-10.392,4.24-20.36,11.944-28.056C67.64,196.24,77.608,192,88,192
		s20.36,4.24,28.056,11.944C123.76,211.64,128,221.608,128,232V264z"/>
</g>
<g>
	<polygon style="fill:#43D3E8;" points="464,176 448,176 448,136 48,136 48,176 32,176 32,120 464,120 	"/>
	<polygon style="fill:#43D3E8;" points="464,440 32,440 32,384 48,384 48,424 448,424 448,384 464,384 	"/>
	<path style="fill:#43D3E8;" d="M464,272H224v-80h240V272z M240,256h208v-48H240V256z"/>
</g>
<g>
	<rect x="256" y="224" style="fill:#403E3E;" width="48" height="16"/>
	<rect x="320" y="224" style="fill:#403E3E;" width="48" height="16"/>
	<rect x="384" y="224" style="fill:#403E3E;" width="48" height="16"/>
</g>
<g>
	<path style="fill:#43D3E8;" d="M240,272h-80v-80h80V272z M176,256h48v-48h-48V256z"/>
	<path style="fill:#43D3E8;" d="M464,368H224v-80h240V368z M240,352h208v-48H240V352z"/>
</g>
<g>
	<rect x="256" y="320" style="fill:#403E3E;" width="16" height="16"/>
	<rect x="288" y="320" style="fill:#403E3E;" width="16" height="16"/>
	<rect x="320" y="320" style="fill:#403E3E;" width="16" height="16"/>
	<rect x="352" y="320" style="fill:#403E3E;" width="16" height="16"/>
	<rect x="384" y="320" style="fill:#403E3E;" width="16" height="16"/>
	<rect x="416" y="320" style="fill:#403E3E;" width="16" height="16"/>
</g>
<path style="fill:#43D3E8;" d="M240,368h-80v-80h80V368z M176,352h48v-48h-48V352z"/>
<g>
</g>
<g>
</g>
<g>
</g>
<g>
</g>
<g>
</g>
<g>
</g>
<g>
</g>
<g>
</g>
<g>
</g>
<g>
</g>
<g>
</g>
<g>
</g>
<g>
</g>
<g>
</g>
<g>
</g>
</svg>
