<?xml version="1.0" encoding="iso-8859-1"?>
<!-- Generator: Adobe Illustrator 19.0.0, SVG Export Plug-In . SVG Version: 6.00 Build 0)  -->
<svg version="1.1" id="Layer_1" xmlns="http://www.w3.org/2000/svg" xmlns:xlink="http://www.w3.org/1999/xlink" x="0px" y="0px"
	 viewBox="0 0 512 512" style="enable-background:new 0 0 512 512;" xml:space="preserve">
<g>
	<polygon style="fill:#6C747A;" points="448,85.333 373.333,85.333 373.333,10.667 394.667,10.667 394.667,64 448,64 	"/>
	<polygon style="fill:#6C747A;" points="458.667,512 53.333,512 53.333,0 388.267,0 458.667,70.4 458.667,298.667 437.333,298.667 
		437.333,78.933 379.733,21.333 74.667,21.333 74.667,490.667 458.667,490.667 	"/>
	<path style="fill:#6C747A;" d="M416,320h-21.333v-85.333c0-5.333-2.133-10.667-6.4-14.933c-4.267-4.267-9.6-6.4-14.933-6.4h-42.667
		c-5.333,0-10.667,2.133-14.933,6.4s-6.4,9.6-6.4,14.933V320H288v-85.333c0-11.733,4.267-22.4,12.8-29.867
		c8.533-8.533,19.2-12.8,29.867-12.8h42.667c11.733,0,22.4,4.267,29.867,12.8c8.533,8.533,12.8,19.2,12.8,29.867V320z"/>
</g>
<rect x="245.333" y="320" style="fill:#A0E8EB;" width="213.333" height="192"/>
<g>
	<path style="fill:#446A70;" d="M352,426.667c-18.133,0-32-13.867-32-32c0-18.133,13.867-32,32-32s32,13.867,32,32
		C384,412.8,370.133,426.667,352,426.667z M352,384c-6.4,0-10.667,4.267-10.667,10.667c0,6.4,4.267,10.667,10.667,10.667
		c6.4,0,10.667-4.267,10.667-10.667C362.667,388.267,358.4,384,352,384z"/>
	<rect x="341.333" y="416" style="fill:#446A70;" width="21.333" height="32"/>
</g>
<g>
	<rect x="117.333" y="64" style="fill:#6C747A;" width="21.333" height="21.333"/>
	<rect x="160" y="64" style="fill:#6C747A;" width="21.333" height="21.333"/>
	<rect x="202.667" y="64" style="fill:#6C747A;" width="21.333" height="21.333"/>
	<rect x="117.333" y="106.667" style="fill:#6C747A;" width="277.333" height="21.333"/>
	<rect x="117.333" y="149.333" style="fill:#6C747A;" width="277.333" height="21.333"/>
	<rect x="117.333" y="192" style="fill:#6C747A;" width="149.333" height="21.333"/>
	<rect x="117.333" y="234.667" style="fill:#6C747A;" width="149.333" height="21.333"/>
	<rect x="117.333" y="277.333" style="fill:#6C747A;" width="149.333" height="21.333"/>
	<rect x="117.333" y="320" style="fill:#6C747A;" width="106.667" height="21.333"/>
	<rect x="117.333" y="362.667" style="fill:#6C747A;" width="106.667" height="21.333"/>
	<rect x="117.333" y="405.333" style="fill:#6C747A;" width="106.667" height="21.333"/>
</g>
<rect x="245.333" y="490.667" style="fill:#446A70;" width="213.333" height="21.333"/>
<g>
</g>
<g>
</g>
<g>
</g>
<g>
</g>
<g>
</g>
<g>
</g>
<g>
</g>
<g>
</g>
<g>
</g>
<g>
</g>
<g>
</g>
<g>
</g>
<g>
</g>
<g>
</g>
<g>
</g>
</svg>
