<?xml version="1.0" encoding="iso-8859-1"?>
<!-- Generator: Adobe Illustrator 19.0.0, SVG Export Plug-In . SVG Version: 6.00 Build 0)  -->
<svg version="1.1" id="Layer_1" xmlns="http://www.w3.org/2000/svg" xmlns:xlink="http://www.w3.org/1999/xlink" x="0px" y="0px"
	 viewBox="0 0 512 512" style="enable-background:new 0 0 512 512;" xml:space="preserve">
<rect x="204.8" y="153.601" style="fill:#F96232;" width="53.737" height="20.48"/>
<g>
	<rect x="258.534" y="223.822" style="fill:#242D3C;" width="57.836" height="20.48"/>
	<rect x="258.534" y="258.92" style="fill:#242D3C;" width="57.836" height="20.48"/>
	<rect x="258.534" y="364.264" style="fill:#242D3C;" width="57.836" height="20.48"/>
	<rect x="258.534" y="399.361" style="fill:#242D3C;" width="57.836" height="20.48"/>
</g>
<rect x="204.8" y="188.699" style="fill:#43D3E8;" width="111.572" height="20.48"/>
<rect x="204.8" y="294.043" style="fill:#F96232;" width="53.737" height="20.48"/>
<rect x="204.8" y="329.141" style="fill:#43D3E8;" width="111.572" height="20.48"/>
<rect x="338.995" y="223.822" style="fill:#F96232;" width="57.838" height="20.48"/>
<rect x="338.995" y="258.92" style="fill:#242D3C;" width="111.572" height="20.48"/>
<rect x="338.995" y="364.264" style="fill:#F96232;" width="57.838" height="20.48"/>
<g>
	<rect x="338.995" y="399.361" style="fill:#242D3C;" width="111.572" height="20.48"/>
	<rect x="338.995" y="188.699" style="fill:#242D3C;" width="57.838" height="20.48"/>
	<rect x="338.995" y="329.141" style="fill:#242D3C;" width="57.838" height="20.48"/>
	<path style="fill:#242D3C;" d="M512,470.355H0v-367.27h512V470.355z M20.48,449.875h471.04v-326.31H20.48V449.875z"/>
	<path style="fill:#242D3C;" d="M512,123.565H0v-81.92h512V123.565z M20.48,103.085h471.04v-40.96H20.48V103.085z"/>
	<rect x="30.72" y="72.372" style="fill:#242D3C;" width="20.48" height="20.48"/>
	<rect x="71.68" y="72.372" style="fill:#242D3C;" width="20.48" height="20.48"/>
	<rect x="112.64" y="72.372" style="fill:#242D3C;" width="20.48" height="20.48"/>
	<rect x="143.36" y="113.332" style="fill:#242D3C;" width="20.48" height="346.803"/>
</g>
<rect x="40.96" y="153.601" style="fill:#43D3E8;" width="81.92" height="90.701"/>
<g>
	<rect x="40.96" y="258.92" style="fill:#242D3C;" width="81.92" height="20.48"/>
	<rect x="40.96" y="294.017" style="fill:#242D3C;" width="81.92" height="20.48"/>
	<rect x="40.96" y="329.115" style="fill:#242D3C;" width="81.92" height="20.48"/>
	<rect x="40.96" y="364.212" style="fill:#242D3C;" width="81.92" height="20.48"/>
</g>
<g>
</g>
<g>
</g>
<g>
</g>
<g>
</g>
<g>
</g>
<g>
</g>
<g>
</g>
<g>
</g>
<g>
</g>
<g>
</g>
<g>
</g>
<g>
</g>
<g>
</g>
<g>
</g>
<g>
</g>
</svg>
