<?xml version="1.0" encoding="iso-8859-1"?>
<!-- Generator: Adobe Illustrator 19.0.0, SVG Export Plug-In . SVG Version: 6.00 Build 0)  -->
<svg version="1.1" id="Layer_1" xmlns="http://www.w3.org/2000/svg" xmlns:xlink="http://www.w3.org/1999/xlink" x="0px" y="0px"
	 viewBox="0 0 511.999 511.999" style="enable-background:new 0 0 511.999 511.999;" xml:space="preserve">
<path style="fill:#43D3E8;" d="M207.077,430.765c0.855,0.197,3.116-0.584,3.756-0.783c-1.523-1.226-4.91-1.393-6.858-2.601
	c0.143,0.095-6.295-3.827-4.938-0.579c0.348,0.773,1.587,0.064,2.125,0.466c-0.781,1.167-1.114,0.794-0.266,1.288
	c0-0.008-7.165-3.863,0.026-4.134c-4.948-4.442,0.32-3.062-1.257-5.888c-1.057-1.92,4.232-3.789,1.385-5.455
	c-1.377-0.768-2.867-0.622-4.252-1.569c-1.979-1.444-0.113-3.981,1.772-3.707c0.146,0,1.096-4.521,1.464-5.22
	c-0.543-0.228-4.247-4.81-3.348-5.763c1.101-1.16,5.88,2.959,7.068-0.079c0.463-1.103-1.664-4.068-1.495-5.294
	c2.196-0.184,16.468,0.353,14.026-6.175c-0.827-2.289-6.843-5.688-6.241-7.544c2.12,0.264,5.563,3.338,7.772,2.122
	c1.871-0.934,3.361,1.039,5.256-1.088c0.284-0.399,3.5-3.784,2.591-4.416c-0.973-0.018-1.523,0.522-1.6,1.661
	c-1.116-1.544,0.812-2.604,1.82-3.722c0.315,0.361,0.52,0.676,0.732,0.973c1.226-1.784,7.782-10.368,8.044-10.583
	c3.387-3.901,0.556-9.198,3.914-12.303c3.064-2.89,6.387-4.749,10.184-6.29c1.208-0.476,5.394-2.673,6.28-2.452
	c6.979,2.166,6.134-6.17,10.573-9.958c4.559-3.784,1.206-23.14,4.861-24.563c1.974-0.796,7.936-8.148,11.049-11.51
	c3.016-3.182,3.364-7.327,2.24-11.456c-1.766-6.244-3.592-2.67-8.11-5.412c-3.602-2.153-6.359-6.464-10.903-7.066
	c-2.632-0.374-5.363,0.433-7.954-0.348c-1.17-0.348-4.127-2.163-5.228-0.64c0.187-0.243-2.445,0.988-2.25,1.06
	c-0.279-0.2-0.056-3.43-0.911-4.237c-1.395-1.298-6.042-2.624-7.734-3.041c-3.927-1.014-4.854,3.581-5.847-1.905
	c-3.244-0.876-6.446-4.608-5.868-5.553c0.292-0.392-5.005-11.553-5.74-10.516c-0.056-3.758-11.694-8.422-14.62-6.656
	c-2.665,1.961-7.532-1.71-9.183-3.456c-1.843-1.971-1.772-4.134-4.892-5.422c-1.303-0.553-3.551-0.256-3.075-2.545
	c0.54-2.363-5.722-2.847-6.308-5.187c0.888,0.154,1.654-0.287,2.473-0.492c-2.427,0.845-5.376-0.911-7.803,1.014
	c-3.479,2.903-5.563-1.352-9.37-0.584c-4.854,0.904-1.6-0.868-4.657-2.752c1.272,0.794-5.658-3.146-4.04-3.031
	c-1.441-0.136,0.22,2.427-1.4,2.967c-2.511,0.924-4.705,1.528-3.054,4.559c2.767,5.535-5.821,2.936-1.756-0.84
	c0.717-0.632,0.901-7.877,1.708-7.613c-0.993-0.353-8.832,4.744-9.751,5.829c-2.516-4.055-6.764,9.958-8.166,10.094
	c-0.724-3.448-4.014-4.879-6.879-5.878c-2.409-0.937-4.864,4.854-8.054,1.695c-5.635-5.752-3.164-14.973-0.284-21.496
	c1.19-2.988-10.447-3.914-11.873-2.698c-2.852,2.319,0.44-4.808,0.417-4.567c0.328-2.888,0.998-4.815,2.248-4.726
	c0.781-1.697,5.107-9.487,4.631-10.406c-1.733-4.096-9.096,3.128-9.759,4.959c-0.75,1.777-2.181,2.744-2.844,4.344
	c-0.694,1.623-2.051-0.361-3.223,0.294c-3.164,1.792-7.711,0.873-6.994-3.738c0.691-5.548-1.403-16.489,4.818-20.28
	c1.912-1.183,2.196-6.712,4.372-8.663c0.297-0.233,6.574-3.889,5.967-4.608c0.919,0.993,5.855-0.996,6.495,0.276
	c0.489,1.068,3.397,2.163,4.403,1.585c-0.054,0.108,0.535-2.452,0.535-2.476c-0.125-0.028-2.043-0.289-1.956-0.896
	c0.228-0.863,6.139-0.287,6.31-0.264c2.798,0.212,4.879,2.496,6.932,1.111c3.244-2.168,1.265,12.191,2.537,13.501
	c0.707,0.773,0.192,2.519,1.559,2.345c1.815-0.177,2.414-18.629,7.165-22.467c3.466-2.775,7.247-5.302,11.09-7.375
	c1.219-0.632,4.424-2.15,5.074-3.382c-0.156-0.604-0.704-1.295-1.385-0.681c-0.192-1.16,1.728-0.44,2.056-1.631
	c0.369-1.183-0.968-1.544-0.827-1.953c-0.049,0.09,1.196-2.44,0.763-2.086c0.064,0.059,0.064,0.169,0.079,0.22
	c1.907,0.323-0.417-1.764-0.481-2.086c2.501,1.29,1.431-2.724,3.878-2.952c-1.751,0.737-1.411,2.708-1.183,3.884
	c0.512,2.652,2.824-3.633,2.552-3.4c2.355-0.947,5.998-2.911,8.509-4.692c-0.586-0.22-1.193,0.236-1.905-0.264
	c2.57-0.963,5.468-0.66,7.91-1.915c-0.115-2.596,1.449-5.294,4.372-5.809c4.5-0.704,9.702-3.448,14.162-4.956
	c-0.681,1.516,0.361,0.34,1.577,0.924c-1.457-3.776-9.38,6.976-5.614,4.792c3.185-1.807,13.924-3.494,15.375-6.572
	c-0.028-0.205-0.707-2.25-0.691-2.25c-2.655,0-2.865,3.267-6.141,3.249c-5.891-0.064-2.312-3.704-3.556-5.35
	c-1.065,0.264-1.94-0.023-2.683-0.847c0.607-0.105,7.903-1.792,4.065-2.655c-6.249-1.344-10.414,5.606-15.56,5.445
	c3.82-2.35,9.07-7.342,13.742-7.982c4.943-0.696,11.871,1.736,16.22-1.321c3.927-2.678,6.574-0.727,8.74-5.102
	c0.694-1.201-2.831-2.724-3.732-2.895c0.369-0.448,1.152,0,1.487-0.753c-5.878-2.619-7.107-5.199-7.813-11.965
	c-2.967,2.168-12.997,6.81-7.631-0.768c-1.935-0.814-8.003-5.885-10.342-2.391c-1.057,1.577-2.76,4.209-4.529,5.028
	c-3.999,1.815-0.448,1.475-1.805,4.122c-2.243,4.367-7.667,3.784-10.235,7.619c-1.631,2.419-2.127,4.114-4.664,5.22
	c-2.194,0.993-3.039-1.592-1.943-3.656c0.765,0.855,1.472,0.991,2.12,0.343c0.192-0.97-1.155-0.517-1.595-0.847
	c0.783-1.385,1.756-2.624,2.862-3.75c-0.394-0.207-6.011-1.101-5.791-2.568c0.364-3.08-3.484-1.408-4.196-2.319
	c2.995-3.791,2.995-5.527,8.909-8.489c2.02-0.988,13.281-6.771,15.38-5.343c-0.256,1.316-1.623,1.052-2.401,1.684
	c1.631,0.428,6.344,0.952,7.926-0.177c-0.32-0.32-2.232-3.428-1.247-4.183c-0.143,0.136,3.249,0.064,3.492-0.023
	c1.805-0.425,3.794-0.663,4.836-2.488c0.888-1.649,6.851-3.758,8.269-2.944c7.831,4.431-10.565,9.119-10.762,8.64
	c0.379,1.28,5.33-0.932,6.582,2.463c0.317,0.832,5.934,2.678,6.482,1.879c0.353-0.392-1.62-2.46-1.679-2.959
	c5.898,2.883,5.612,1.377,4.623-2.575c-0.937-3.776,3.479,0.236,3.699,0.369c0.973,0.504,4.992-1.8,5.596-2.627
	c-1.472-1.096-3.95-1.068-5.238-2.419c-1.175-1.165,3.11-1.472,1.6-2.696c-1.784-1.457-4.588-1.088-3.604-3.971
	c-1.019-0.3-2.007-0.177-2.924,0.379c0.276,0.52,0.873,0.12,1.088,0.417c-1.004,0.586-2.112,0.676-3.213,0.64
	c0.34-0.481,1.372-0.481,1.395-1.452c-3.075-0.379-4.708,1.452-7.365,2.268c0.768-1.088,2.03-1.423,2.967-2.25
	c-2.911,0.387-5.683,1.436-7.982,3.379c0.32,0.328,0.684,0.632,0.863,1.065c-2.217,1.969-5.187,2.593-7.798,3.768
	c0.443-1.743,2.35-1.329,2.952-2.632c-0.968,0-1.894,0.248-2.747,0.648c1.121-0.166,4.403-3.43,5.13-4.262
	c-4.731-0.568-6.725,5.606-11.231,4.726c0.945-1.111,2.836-0.548,3.471-2.248c-1.649,0.192-7.933,4.477-8.973,2.248
	c-0.049-0.156,11.515-4.726,12.721-6.39c-0.781-0.108-1.664,0.681-2.35-0.241c0.556-0.607,1.487-0.694,2.125-1.352
	c-3.761-0.041-15.05,4.559-14.213,7.199c-1.446,1.193-3.008,1.48-4.805,0.76c0.684-1.103,3.162-1.121,1.165-2.703
	c-3.633,1.329-7.178,2.816-10.711,4.375c-8.172,3.62-16.154,7.841-23.703,12.541c-12.49,7.749-22.868,16.881-33.178,27.251
	c-5.471,5.56-26.35,29.939-26.268,35.041c0.041,3.74-2.168,7.078-3.574,10.463c-1.126,2.752-1.3,6.595-2.639,9.142
	c-3.041,5.435-1.664,11.689-3.034,17.92c1.736-1.331,5.261-29.783,8.364-28.692c0.589,0.192-1.92,11.83-2.542,13.253
	c-2.588,5.972,0.824,13.261-0.883,19.489c-0.192,0.627-1.044,3.779-1.065,4.431c-2.875,2.194,0.76,5.491,0.737,7.905
	c0,1.452,7.311,7.862,8.758,8.709c3.054,1.836,3.656-1.423,6.469-0.847c2.511,0.527,3.251,5.112,4.616,7.076
	c1.779,2.691,8.632,2.371,9.856,3.635c0.76,0.991,0.095,6.223,3.215,6.966c-0.013-0.371-0.079-2.199,0.364-2.483
	c0.957-0.561,2.959,2.924,2.276,3.548c-0.98,0.233-1.864-0.128-2.627-1.065c0,0.474-0.499,7.311,1.485,5.983
	c0.031-0.412,0.164-0.86,0.207-1.272c2.644,1.147,2.432,4.982,4.268,5.519c2.555,0.699,4.506,3.912,6.4,4.81
	c1.718,0.891,1.239-6.011,4.524-6.351c2.644-0.228,4.132,6.636,5.028,8.307c1.408,2.427-1.856,8.256-0.044,10.109
	c1.802,1.943-4.531,6.495-4.854,8.43c-0.2,1.48-3.436,2.89-3.32,3.451c0.248,1.597-0.691,3.804-1.29,5.345
	c-1.615,4.283-0.819,4.669,1.974,6.651c0.09,0.079-5.164,10.447-2.148,13.125c4.739,3.904,11.039,13.558,12.575,19.617
	c3.095,8.338,7.841,13.458,15.77,17.585c6.474,3.407,11.049,9.144,11.049,16.952c0.248,4.567-0.456,10.273,1.5,14.584
	c1.352,2.975-1.221,7.892,0.699,10.621c1.265,1.669-0.369,2.655,0.364,4.204c0.74,1.69,2.519,4.498,2.478,6.474
	c-0.054,3.256,0,7.165,0.215,10.404c0.059,1.096-0.97,2.975-0.425,3.692c0.755,0.904,5.164,11.758,5.164,14.904
	c-0.015,0.768,3.392-0.177,0.323-3.264c3.633-2.048,2.9,6.513,3.151,6.566c-3.267-1.073-1.18-0.192-0.904,4.014
	c0.174,2.483-0.645,1.303,1.385,1.774c3.259,0.707,0,2.88,1.226,4.623c2.414,3.5,6.188,6.74,8.727,9.434
	C195.014,430.468,202.131,429.741,207.077,430.765C207.804,430.931,206.181,430.596,207.077,430.765z M220.696,90.077
	c-1.116,1.032-2.383,1.216-3.663,1.615C217.947,90.269,219.273,90.502,220.696,90.077z M209.834,89.158
	c0.832-0.154,1.528,0.097,1.984,0.663c0.015,0.351-4.447,0.576-5.164,1.684C207.244,89.588,208.872,89.908,209.834,89.158
	C210.295,89.721,208.872,89.908,209.834,89.158z M198.898,96.877C199.83,97.13,197.518,96.677,198.898,96.877
	C198.934,96.892,198.629,96.843,198.898,96.877z M192.879,85.41c0.399-0.44,0.727-0.374,0.947,0.22
	C193.422,86.117,193.064,86.03,192.879,85.41C192.887,85.147,192.823,85.718,192.879,85.41z M186.879,103.261
	C185.212,103.169,188.648,103.346,186.879,103.261C186.687,103.261,187.127,103.282,186.879,103.261z M188.648,96.357
	c-5.775,5.463-1.267,0.064-2.959,1.759c0.026,0.069,0,0.161-0.074,0.161C185.128,97.762,188.54,96.411,188.648,96.357
	C187.944,97.051,187.654,96.516,188.648,96.357z M186.536,89.929c-1.065,1.203-1.065,1.203-2.511,0.94
	C184.8,90.349,185.847,90.525,186.536,89.929z M212.522,69.385c-0.369,0.023-0.791,0.023-1.354,0.023
	C213.022,67.833,212.699,69.385,212.522,69.385C212.156,69.408,212.796,69.385,212.522,69.385z M216.705,66.594
	c-0.625,0.737-1.556,0.305-2.34,0.671C215.203,65.634,215.369,65.617,216.705,66.594z M193.143,68.522
	c0.504-0.433,1.121-0.689,1.736-0.625C195.437,68.709,191.351,69.172,193.143,68.522C193.422,68.089,192.951,68.604,193.143,68.522z
	 M192.127,67.329c0.637,0.32,0.581,0.599-0.2,0.934C191.372,67.928,191.436,67.649,192.127,67.329
	C192.367,67.329,191.784,67.36,192.127,67.329z M161.622,119.336c0.054-0.041-9.116,3.663-8.43,1.364
	c-0.192,0.74,3.156-2.588,2.447-2.268c0.76-0.335,6.902-0.699,8.701-0.681C163.404,118.719,162.492,118.998,161.622,119.336
	C159.612,120.088,162.492,118.998,161.622,119.336z M168.959,114.784c7.588,0.745-4.503,3.059-5.796,1.679
	C164.868,114.996,166.878,114.564,168.959,114.784C169.568,114.879,166.878,114.564,168.959,114.784z M167.715,67.736
	c2.033-1.295,4.183-2.232,6.825-2.865c-1.953,1.608-4.529,2.284-6.886,2.921L167.715,67.736z M168.132,108.64
	c-0.351,0.353-0.671,0.328-0.98-0.008C167.63,108.433,168.076,108.302,168.132,108.64
	C168.296,108.968,168.076,108.302,168.132,108.64z M165.897,113.192C165.743,113.192,165.147,113,165.897,113.192
	C165.956,113.192,165.656,113.092,165.897,113.192z M163.678,109.298c2.76,1.288,1.175,5.583-1.208,2.255
	c-0.079,1.943-3.505,5.304-5.335,5.704c0.689-0.794,0.927-1.656,0.691-2.583c-0.594-0.456-1.728,0.855-2.363,0.824
	c0.238,1.216,4.938-8.005,0.991-5.35c-1.416,1.111-10.89,11.177-11.43,10.591c-0.888-0.888,4.175-8.269,4.559-8.55
	C152.838,109.521,159.612,107.393,163.678,109.298z M158.404,74.136c0.392-0.205,3.43-2.086,3.814-1.649
	c0.975,1.216-4.895,2.742-5.164,2.76C157.382,74.5,157.961,74.423,158.404,74.136C159.484,73.545,157.961,74.423,158.404,74.136z
	 M159.054,98.83c-0.028,0.141-1.229,2.412-1.92,1.516C156.502,99.729,158.849,97.762,159.054,98.83
	C158.965,99.426,158.982,98.543,159.054,98.83z M152.411,79.791c0.335,0,5.256-3.11,5.414-1.848
	C157.905,78.319,151.84,79.871,152.411,79.791z M151.046,84.829c-0.305,0.561-0.571,0.852-1.288,0.824
	C150.038,85.065,150.476,85.021,151.046,84.829z M147.631,96.677c0.689-0.54,2.281-3.121,1.5-4.104
	c0.451,0.55-2.947-0.376-1.388-0.945c0.632-0.215,4.454-2.319,5.094-1.664c1.096,1.144-4.82,7.322-5.99,7.831
	C146.981,97.186,147.291,96.91,147.631,96.677C148.614,95.94,147.291,96.91,147.631,96.677z M150.99,104.475
	c4.232-1.352,5.765-3.766,8.302-0.504c0.991,1.196,0.791,4.311-1.469,3.561c0.612,0.228-6.881-0.489-5.501-1.313
	c-1.508,0.919-4.388,1.592-6.154,0.824C147.808,106.121,149.203,105.033,150.99,104.475
	C152.047,104.121,149.203,105.033,150.99,104.475z M145.087,96.587c0.392,1.024,0.128,1.528-1.047,1.687
	C144.488,97.611,144.808,97.107,145.087,96.587z M85.091,187.818C83.163,187.746,86.588,187.746,85.091,187.818
	C84.863,187.81,85.283,187.81,85.091,187.818z M109.316,205.218C108.75,205.423,110.798,204.886,109.316,205.218
	C109.183,205.28,109.562,205.167,109.316,205.218z M168.388,224.767C167.387,224.582,169.583,224.859,168.388,224.767
	C168.303,224.767,168.552,224.795,168.388,224.767z M178.09,398.004C176.401,397.7,178.979,396.699,178.09,398.004
	C177.67,397.953,178.113,397.953,178.09,398.004z M182.394,311.356C181.782,310.719,182.752,311.668,182.394,311.356
	C182.312,311.251,182.506,311.435,182.394,311.356z M183.049,365.308C181.976,365.677,184.219,364.888,183.049,365.308
	C182.775,365.423,183.233,365.249,183.049,365.308z M188.758,423.494c-0.768-0.44-0.768-0.719-0.059-0.84
	C189.546,422.985,189.574,423.302,188.758,423.494C188.44,423.469,189.024,423.553,188.758,423.494z M196.287,426.804
	c-0.768-0.166-0.712-0.456,0.241-0.909C197.19,426.134,197.098,426.469,196.287,426.804
	C195.969,426.804,196.479,426.733,196.287,426.804z M180.325,405.305c-0.108,0.041-0.197,0.059-0.264,0.079
	C180.305,405.226,180.361,405.193,180.325,405.305z M199.034,57.427c0,0-0.02,0-0.033,0c0.013,0,0.013-0.041,0.013-0.041
	L199.034,57.427z M128.045,91.068c0,0.041-0.028,0.041-0.028,0.041L128.045,91.068z M130.026,89.404L130.026,89.404L130.026,89.404z
	 M461.608,218.571l0.018,0.015c-4.088-15.076-7.091-29.955-13.371-44.524c-7.378-17.336-17.126-33.677-28.902-48.394
	c-11.092-13.908-23.921-26.348-38.172-36.984c-6.935-5.23-14.185-9.94-21.727-14.228c-3.551-2.071-7.178-4.047-10.944-5.87
	c-1.628-0.776-7.263-2.25-8.131-3.679c0.049,0.668,3.331,2.332,3.73,2.767c-2.176-0.584-8.026-3.057-8.131-3.423
	c0.161-0.279,0.576,0,0.527-0.456c-3.308-2.112-15.598-6.666-18.079-3.287c0.497-0.694,8.522,8.535,8.694,10.194
	c0.545,3.592,6.124,7.411,9.761,8.538c4.91,1.684,1.213-0.548,3.259-1.705c1.388-0.663,2.688,2.296,3.917,1.592
	c-0.036-0.023,0-0.056,0.046-0.079c-0.312-0.704-0.76-1.359-1.132-2.056c-0.399,0,9.014,9.687,10.199,7.575
	c-1.078-2.619-2.757-5.591-5.504-8.059c-2.289-2.214-6.057-2.419-8.586-4.636c-1.26-1.121-6.049-4.608-6.602-6.218
	c6.344,0.22,13.64,13.53,19.927,8.371c-0.875-0.584-1.728-1.239-2.534-1.958c1.132,0.351,6.467,2.038,4.687,4.247
	c-5.061-0.881,4.183,4.247,4.398,4.831c-0.922-0.072-1.562-0.801-2.417-0.881c0.338,1.764,5.297,3.551,5.709,6.543
	c-3.013,0.466-1.705-1.8-3.715,0.625c-0.573,0.75-3.292,0.535-4.708,0.643c-3.461,0.279-7.329-5.583-9.859-7.378
	c1.05,3.244,2.834,4.826,6.525,7.15c1.777,0.993-2.47,1.436-2.414,2.936c0.097,0,1.124,0.494,1.093,0.76
	c0,0.207-0.955-0.648-1.093-0.76c0.328-0.256-0.64,5.727-0.722,5.64c2.834,3.308-3.725,2.335-3.932,2.463
	c0.545,0.75,1.585,1.111,1.787,2.214c-1.902,0.097-3.489-0.154-5.338,0.507c2.698,0.809,17.702,7.747,14.405,12.959
	c-0.998,1.7-11.154-0.412-13.005-0.499c-3.968-0.266-0.325,3.761-0.189,4.227c0.579,2.985,2.916,4.283,2.755,7.78
	c-0.189,2.463,2.345,2.534,3.039,4.598c0.709,1.8,0.343,1.992,2.207,2.227c3.338,0.428,3.418-0.084,6.216,2.099
	c2.035,1.58,2.836-1.416,5.204-1.523c5.975-0.243,0.909-1.464,3.735-2.268c3.484-0.983-0.975-6.502-0.796-7.578
	c0.233-1.436-0.195-3.059,1.705-3.604c3.057-0.783-0.791-3.901-0.998-4.744c-0.62-2.47,8.34,2.071,7.194-4.155
	c5.194,1.62,10.445,6.203,15.124,8.883c2.849,1.672,5.583,3.244,7.611,5.911c2.435,3.144-3.474,1.833-3.812,2.744
	c-0.412,1.016,5.194,3.535,6.072,3.448c0.136-0.527-0.694-3.735-0.758-4.303c-0.253-2.207-3.482-4.383-3.274-6.167
	c1.006,0.097,1.9,0.504,2.793,1.111c-3.016-3.656-7.9-4.014-11.302-6.766c-2.007-1.679-4.608-3.031-6.669-4.759
	c0-0.015-3.592-4.631-1.068-3.735c4.001,1.354,8.346,5.409,12.439,7.534c3.22,1.705,3.945,2.726,6.349,5.519
	c0.932,1.096,5.926,6.851,7.086,7.063c-0.069-0.056,3.986,3.599,5.635,4.175c-0.732-1.679-1.311-3.784-2.179-5.151
	c-1.17-1.805-5.765-2.811-5.765-5.55c1.016,0.113,1.149-1.004,3.423-0.927c-1.185-0.049,1.48-1.761,1.275-1.513
	c-4.342-2.47-10.184-9.695-11.689-14.605c1.172,0.049,1.825,1.641,3.092,0.824c-0.397-0.824-0.484-1.687-0.397-2.609
	c0.317,0.399,4.444,3.896,3.599,4.608c-1.126-0.015-2.063-0.543-2.908-1.431c0.54,2.071,2.652,2.104,3.484,3.543
	c0.079-0.591-0.353-1.065,0.179-1.672c3.556,1.487,10.9,7.199,11.837,11.182c-1.556,0.174-4.529-3.151-5.652-2.33
	c-0.302,0.817-0.279,1.58,0.146,2.36c-0.44,0.015-0.899,0.143-1.26,0.364c0.612,0.461,0.883,1.073,0.963,1.772
	c-0.607,0.205-1.116,0.361-1.774,0.543c0.54,1.994,11.105,12.109,11.843,11.082c0.223-0.361-0.384-1.403-0.228-1.541
	c0.502-0.632,2.163,2.304,3.046,1.7c0.714-0.43-0.648-1.364,0.151-1.756c1.539-0.824,7.923,11.653,8.701,13.102
	c3.016,5.775,1.014,2.24-1.334,3.039c-0.3,0.632-0.54,1.208-0.591,1.928c-3.727-0.855-7.811-3.008-10.772-5.151
	c-4.826-3.487,1.544,9.413-1.267,7.79c-1.62-0.932-2.593-2.281-4.559-2.47c-2.98-0.305-3.812-3.405-6.469-4.303
	c-2.138-0.735-10.836-1.544-9.674-5.486c0.901-3.4-3.41-6.198-4.902-7.488c-0.755-0.65-10.317,0.586-11.896,1.057
	c-2.624,0.847-6.802,1.71-8.302,4.178c-2.552,4.611-8.407-1.472-10.783-0.532c-1.196,0.532-0.026,4.311-0.62,5.491
	c-1.009,1.836-3.3,1.948-3.907,4.076c-1.011,3.894,1.905,7.158,0.607,10.757c-1.147,2.847-6.63,4.083-6.71,6.449
	c-0.049,1.265-0.335,2.647-1.475,3.336c-2.511,1.441,0.061,4.751-1.505,6.4c-8.522,8.622,2.706,17.108,0.812,26.627
	c-1.093,5.391-1.715,6.467,0.604,11.11c0.502,1.165,0.128,9.544,4.349,6.152c0.568,4.879,6.807,5.896,7.882,10.522
	c1.38,5.484,6.735,7.875,10.934,11.18c1.677,1.295,3.146,2.998,5.043,3.971c3.443,1.802,5.77-0.95,9.055-1.853
	c3.011-0.847,6.077-0.535,8.86,0.783c1.61,0.76,13.65-7.711,16.837-6.126c2.401,1.201,2.504,4.083,3.653,6.167
	c1.59,2.944,4.836-0.904,7.058,0.064c3.973,1.769,5.087,16.141,1.772,18.824c-2.496,1.825,3.218,9.682,3.996,11.261
	c2.276,4.454,4.268,12.191,3.569,17.132c-0.591,3.968,0.556,10.304-1.748,13.837c-2.304,3.52-3.574,7.263-5.394,11.246
	c-4.787,10.271-0.251,21.852-4.273,32.504c-2.47,5.445-2.056,11.261-3.361,16.934c-0.86,3.702-5.371,9.016-3.62,12.828
	c2.706-2.414,6.648-2.094,9.677-3.615c6.175-3.049,9.155-10.184,13.627-14.94c2.414-2.514,3.922-5.696,5.297-8.796
	c1.365-2.954,4.096-4.861,5.414-7.718c3.087-7.319,6.001-14.605,9.098-21.898c6.633-15.744,7.762-30.866,10.028-47.749
	C464.926,253.357,464.977,236.409,461.608,218.571z M445.905,177.061c-0.858-2.112-12.04-18.452-10.732-19.336
	c1.523-0.94,25.308,41.224,22.753,47.739C454.278,195.836,449.888,186.505,445.905,177.061
	C445.856,176.964,446.721,178.971,445.905,177.061z M456.083,251.601c-0.474-1.139,0.161-2.163,0.476-3.53
	C457.054,249.509,456.27,250.518,456.083,251.601z M454.798,258.236c-0.041-0.699-0.049-1.272,0.412-1.779
	C455.538,257.133,455.244,257.624,454.798,258.236z M450.884,312.347c-0.435,0.133-0.922,0.317-1.3,0.451
	c-0.763,0,1.428-1.024,1.541-1.126C451.004,312.032,451.004,312.198,450.884,312.347
	C450.543,312.802,451.004,312.198,450.884,312.347z M451.445,290.377c-0.033-2.015,0.067-2.104,2.127-3.384
	C453.109,288.388,451.677,289.056,451.445,290.377z M453.715,280.147c-0.026-3.676-0.113-7.974,0.676-11.571
	c0.146,6.246,0.407,12.531,0.241,18.775C453.644,286.048,453.715,281.737,453.715,280.147
	C453.715,278.818,453.715,281.435,453.715,280.147z M457.013,291.818c-0.061,3.356-0.568,12.503-2.734,15.091
	c0.197-5.64,2.255-10.785,2.335-16.41C457.115,291.058,457.013,291.478,457.013,291.818
	C457.013,292.215,457.013,291.478,457.013,291.818z M459.611,257.709c-0.957,3.973-0.018,5.228-2.417,7.452
	c0-3-1.075-8.66,1.94-10.419C459.573,255.691,459.882,256.5,459.611,257.709C459.158,259.298,459.882,256.5,459.611,257.709z
	 M328.424,451.828c0.3,0.609-26.335,8.074-29.064,8.691c-11.039,2.301-22.246,3.776-33.579,4.321
	c-21.46,1.029-43.94-0.911-64.553-7.176c2.665,0.302,5.847,1.661,8.55,1.224c-2.575-1.592-5.742-1.047-8.031-3.041
	c8.64,1.388,16.845,0.722,24.719,1.766c-0.814-1.108-8.046-2.839-7.995-3.602c1.07-0.077,6.556-0.233,6.838-0.433
	c2.591-1.984-4.145-1.748-3.625-3.213c0.276-0.379,2.107,0.238,2.755-0.622c1.029-1.357,0-2.079,0.356-2.755
	c0.292-0.625,10.755-2.419,11.835-1.946c-1.247,0.745-2.644-0.12-2.15,1.915c-1.037-0.141-4.275-0.059-4.467,1.357
	c0.079-0.351,3.523,4.462,3.64,4.695c1.244,1.869,5.455,3.023,5.74,5.271c0.719,3.776,20.552,3.441,23.462,3.092
	c7.419-0.845,14.318-3.507,21.645-4.733c4.311-0.788,8.63-1.989,13.005-2.435c2.007-0.22,8.804-2.58,10.391-2.035
	C308.95,455.679,324.696,451.076,328.424,451.828C328.449,451.882,327.804,451.721,328.424,451.828z M448.782,336.431
	c0.847-2.135,1.546-4.342,2.598-6.441C450.677,332.238,449.752,334.312,448.782,336.431z M452.248,327.791
	c0.079-0.261,0.189-0.568,0.343-0.768C452.609,327.297,452.351,327.54,452.248,327.791z M223.679,54.125
	c-1.19-0.184-2.342-0.041-3.566-0.241c0.643-0.535,4.134-0.648,2.66-1.651c4.764-2.964,14.858-3.54,20.429-2.86
	c6.193,0.73,12.388-1.175,18.58-0.22c2.483,0.404,4.611,0.461,7.068,0.63c2.189,0.241-0.266,2.452,2.189,2.824
	c1.395,0.205,4.326,3.448,5.612,2.775c-0.051,2.248-1.07,0.663-0.338,2.79c0.161,0.52,2.706,1.943,2.624,2.12
	c-0.241,0.335-7.142-0.146-6.863-0.079c-0.581-0.064,0.102,1.096,0.596,0.911c1.326,0.361,4.36-0.097,5.888,0.015
	c-3.564,3.185-8.783,2.788-12.644,5.343c-2.383,1.585-5.962,1.416-8.622,2.388c0,2.665-1.987,5.916-3.763,8.666
	c-1.288,1.897-10.107-2.514-10.988-3.622c-1.92-2.337-6.362-8.381-1.577-10.301c5.811-2.276,0.054-0.425-1.674-1.654
	c1.411-1.935,2.954-1.288,5.115-0.963c-1.108-1.577-2.545-1.964-4.211-1.157c-0.507-1.664,2.435-3.144-0.169-4.918
	c-1.098-0.776-7.27,0.136-7.437-0.968c-0.335-2.647,7.45-1.208,8.858-3.423C235.603,49.284,229.311,55.003,223.679,54.125
	C222.488,53.94,224.68,54.273,223.679,54.125z M333.685,93.989c0.95-0.108-1.247-3.095-1.728-3.72
	c0.66,0.097,1.17,0.143,1.838-0.241c-0.522-1.344-6.63-4.902-6.989-4.639c-2.314,1.441-5.248-4.992-5.517-5.862
	c3.95-0.525,6.397,3.692,9.946,5.422c3.067,1.441,13.937,6.671,14.264,9.938c0.238,1.628-8.259,0.98-9.518,2.9
	c-0.988-2.414,2.12-2.36,2.063-3.11C337.939,94.063,334.099,93.94,333.685,93.989C333.472,94.012,334.967,93.812,333.685,93.989z
	 M222.302,97.051c-0.612,0.412-7.987,7.439-7.782,8.115c0.148,0.612,7.675,0.156,8.922,0.919c-0.079,0.86-1.07,0.42-1.224,1.165
	c0.975,0,4.047-1.928,4.488-1.37c0.056,0.466,0,0.975-0.236,1.416c3.348,3.254,2.964-3.84,3.223-4.209
	c-2.363-0.351,0.443-3.638-3.451-2.255c0.228-0.105-4.252-1.344-4.047-1.065c-0.404-0.343,3.2-3.448,3.479-3.855
	C223.528,95.371,223.272,96.324,222.302,97.051C221.068,97.995,222.558,96.843,222.302,97.051z M229.615,104.813
	C229.894,105.051,229.08,105.051,229.615,104.813C229.692,104.856,229.531,104.843,229.615,104.813z M227.944,104.626
	c0.22-0.241,1.416-0.74,0.632-0.056C228.341,105.033,227.281,105.386,227.944,104.626
	C228.015,104.513,227.823,104.813,227.944,104.626z M222.65,96.106l0.123-0.028c0,0.028,0,0.036,0.036,0.072
	C222.773,96.116,222.773,96.116,222.65,96.106z M216.035,102.798c0.212,0,0.333,0,0.497,0.151
	C216.35,102.949,215.538,102.916,216.035,102.798C216.247,102.798,215.896,102.826,216.035,102.798z M143.479,189.984
	c-2.02,0.223,1.339-1.559,1.057-2.248c-1.395-3.159-10.87-3.863-11.743-6.403c0.41-0.148,0.717-0.443,0.832-0.855
	c-3.272-1.308-4.936,2.627-7.823,2.406c6.067-10.353,21.192,1.464,27.259,6.228C149.879,189.513,146.684,189.538,143.479,189.984
	C143.241,190.002,145.261,189.751,143.479,189.984z M151.392,195.488c-1.513-0.66,5.007-0.591,5.893-0.945
	c-1.329-2.004-0.11-3.072-2.639-3.863c2.284-2.752,9.882,0.481,12.278,1.551c-0.207,0.328-0.637,0.036-0.888,0.463
	c0.207,0.146,5.215,4.296,1.848,2.913c-3.72-1.577-5.732,0.614-8.374,2.086C157.47,194.769,154.118,196.776,151.392,195.488
	C151.062,195.352,152.014,195.793,151.392,195.488z M328.383,89.757c3.54,3.694-1.969,6.543-4.495,4.16
	c-1.18-1.265-0.44-4.239-3.32-5.102c0.758-0.248,1.521-0.468,2.294-0.74C320.941,83.519,327.436,88.813,328.383,89.757
	C329.112,90.597,328.076,89.458,328.383,89.757z M282.101,67.411c-0.2-0.704,5.107-0.41,5.998-0.553
	c1.439-0.264,11.996,0.817,8.292,2.519c-2.921,1.288-7.153,2.752-9.866,0.287C285.802,69.042,282.126,67.588,282.101,67.411
	C281.98,66.914,282.277,68.148,282.101,67.411z M378.838,119.968c1.275,0,4.237,4.736,3.776,5.519
	c-1.426,2.232-3.814-3.428-5.307-4.311C377.86,120.823,378.413,120.418,378.838,119.968z M213.467,55.563
	c3.625-2.703,4.439-1.175,8.927-0.681C220.932,56.17,217.502,56.434,213.467,55.563C214.453,54.811,217.502,56.434,213.467,55.563z
	 M293.252,52.476c-2.647-0.745-5.522-0.868-8.1-1.912c3.141-0.3,6.935,0.847,9.047,1.48
	C294.931,52.264,293.091,52.42,293.252,52.476C290.605,51.731,293.487,52.532,293.252,52.476z M285.152,50.564
	c-0.256,0.087-0.522,0.105-0.858,0.131C284.63,50.39,284.896,50.372,285.152,50.564C284.896,50.653,285.045,50.533,285.152,50.564z
	 M144.303,195.68c0.609,0.041,0.911,0.369,1.039,0.901c-0.379,1.528-5.074-0.66-5.583-1.29
	C141.382,194.356,142.888,194.897,144.303,195.68z M177.985,195.583C175.515,201.655,169.205,191.333,177.985,195.583
	C177.599,196.448,176.534,194.827,177.985,195.583z M187.68,225.143L187.68,225.143c0.084-0.205,0.241-0.271,0.468-0.284
	C187.992,224.938,187.903,224.994,187.68,225.143z M188.54,224.938c-0.1-0.033,0.684-2.496,2.307-2.601
	C192.69,223.512,189.467,225.038,188.54,224.938C188.435,224.905,190.598,225.22,188.54,224.938z M208.339,54.273
	c-1.684,1.132-3.668,0.387-5.414,1.052C205.357,53.659,206.419,53.779,208.339,54.273C206.657,55.405,208.035,54.191,208.339,54.273
	z M145.496,176.828c-0.63-2.504-1.592-2.534,0.079-4.718C146.231,174.475,146.231,175.853,145.496,176.828
	C145.261,175.837,146.231,175.853,145.496,176.828z M100.197,263.277c-0.036,0.911-0.443,1.28-1.316,0.937
	c-0.3-0.225-0.468-3.295,0.067-3.912C99.381,261.288,99.816,262.24,100.197,263.277C100.376,263.704,99.816,262.24,100.197,263.277z
	 M204.95,99.795c1.979-0.041,3.543,0.535,5.243,1.812C207.914,102.045,206.419,101.172,204.95,99.795z M378.039,119.11l0.041,0.023
	c-0.517-0.197-3.919-2.271-2.588-3.359C376.544,115.048,377.914,118.775,378.039,119.11z M413.165,136.546
	c-0.673-0.691-2.053-0.236-2.414-1.603c1.175,0.66,2.499,0.325,3.589,1.221C413.997,136.495,413.51,136.915,413.165,136.546
	C412.492,135.855,413.51,136.915,413.165,136.546z M211.291,55.435c-0.343-0.481-0.904-0.141-1.277-0.625
	c0.963-1.039,2.271-0.689,3.451-1.009C213.411,53.94,212.038,56.495,211.291,55.435C210.948,54.957,211.46,55.786,211.291,55.435z
	 M205.423,56.723c-1.531,1.183-3.139,2.304-5.266,2.127C201.586,57.32,203.557,57.128,205.423,56.723z M204.894,108.461
	c0.425,0.12,0.863-0.028,1.528-0.084c-2.028,2.511-4.439-0.983-3.924-1.121C202.121,107.345,204.732,108.433,204.894,108.461
	C205.316,108.581,204.077,108.338,204.894,108.461z M205.756,57.724c1.436-1.132,3.116-1.352,4.879-1.229
	C209.128,57.427,207.564,57.908,205.756,57.724z M369.299,124.95c-1.628-0.22,3.118-1.743,1.426,0.486
	C370.198,125.357,369.745,125.224,369.299,124.95C369.084,124.919,369.857,125.029,369.299,124.95z M421.541,136.9
	c-0.973-0.484-1.393-1.152-1.093-2.319C421.208,135.197,421.621,135.837,421.541,136.9z M209.338,65.309
	c0.589-1.037,1.239-1.313,3.297-1.3C211.619,65.181,210.51,65.353,209.338,65.309z M194.262,72.329
	c-1.201,0.632-2.104,1.134-3.361,1.027C191.784,72.329,192.823,72.372,194.262,72.329z M319.681,80.951
	c-0.228,0.456-0.023,0.758,0.361,1.103c-0.407-0.192-1.874-2.017-0.714-2.263C319.802,79.991,319.994,80.39,319.681,80.951
	C319.454,81.407,319.84,80.695,319.681,80.951z M130.666,183.343c-0.074,0.699-0.43,1.052-1.07,1.037
	C129.248,183.784,130.316,182.058,130.666,183.343C130.766,183.763,130.579,183.062,130.666,183.343z M201.046,400.393
	c0.54,0.225,0.84,0.64,0.919,1.226C201.965,403.465,198.67,400.646,201.046,400.393
	C201.358,400.354,200.508,400.467,201.046,400.393z M196.287,73.396c-0.389,0.612-0.945,0.932-1.82,1.203
	C194.92,73.632,195.542,73.476,196.287,73.396z M101.746,262.946C101.572,265.043,101.129,260.919,101.746,262.946
	C101.733,263.233,101.656,262.742,101.746,262.946z M210.231,76.911c0.084-0.041,0.197,0.028,0.266,0.049
	C210.231,77.096,209.778,77.096,210.231,76.911z M200.892,56.951c-0.223,0.077-0.499,0.084-0.691,0.108
	C200.378,56.884,200.639,56.866,200.892,56.951z M200.078,57.112c-0.179,0,0.079-0.051,0.123-0.051
	C200.158,57.074,200.088,57.074,200.078,57.112z M199.082,57.386l-0.049,0.041C199.013,57.386,199.034,57.386,199.082,57.386z
	 M199.082,57.386c0.243-0.328,0.581-0.261,0.947-0.276C199.766,57.468,199.446,57.514,199.082,57.386z M205.72,57.724h0.036
	C205.736,57.732,205.72,57.76,205.72,57.724z M205.72,57.732c-0.059,0.392-0.364,0.353-0.643,0.353
	C205.214,57.732,205.423,57.714,205.72,57.732z M128.795,271.886C128.344,271.538,129.1,272.17,128.795,271.886
	C128.608,271.763,129.036,272.098,128.795,271.886z M352.378,74.136C353.617,74.5,352.426,74.433,352.378,74.136
	C352.378,74.136,352.411,74.387,352.378,74.136z M320.05,82.08c-0.008,0-0.008-0.023-0.008-0.023
	c0.113,0.023,0.154,0.095,0.113,0.279C320.147,82.231,320.114,82.149,320.05,82.08C320.042,82.08,320.114,82.149,320.05,82.08z
	 M205.011,58.082c0.049,0,0.049,0,0.064,0c0,0.023-0.015,0.023-0.064,0.015C205.011,58.098,205.011,58.098,205.011,58.082z
	 M204.638,58.152c0.097-0.044,0.256-0.044,0.376-0.054C204.86,58.372,204.684,58.402,204.638,58.152
	C204.732,58.108,204.661,58.187,204.638,58.152z M395.104,122.751L395.104,122.751l0.031,0.026L395.104,122.751z M229.152,257.553
	C228.484,257.02,229.638,257.153,229.152,257.553C229.08,257.509,229.311,257.404,229.152,257.553z M328.552,451.762
	c-0.054,0.054-0.072,0.054-0.128,0.054c0.026-0.095,0.054-0.172,0.128-0.128C328.552,451.688,328.552,451.752,328.552,451.762z
	 M328.424,451.828c0-0.013-0.041-0.013,0-0.013V451.828z M161.412,109.569c0.09-0.041,2.035-0.271,1.352,0.504
	C162.006,110.457,161.576,110.286,161.412,109.569C161.622,109.528,161.425,109.976,161.412,109.569z M149.198,92.573
	c-0.535-0.376-0.425-0.76,0.384-1.16C150.22,91.677,150.112,92.069,149.198,92.573C148.924,92.54,149.631,92.435,149.198,92.573z"/>
<g>
	<path style="fill:#242D3C;" d="M256.006,475.296c-120.896,0-219.249-98.353-219.249-219.251
		c0-120.911,98.353-219.277,219.249-219.277c120.901,0,219.256,98.365,219.256,219.277
		C475.263,376.943,376.905,475.296,256.006,475.296z M256.006,57.243c-109.606,0-198.774,89.183-198.774,198.802
		c0,109.604,89.167,198.774,198.774,198.774s198.779-89.17,198.779-198.774C454.785,146.425,365.613,57.243,256.006,57.243z"/>
	<path style="fill:#242D3C;" d="M38.837,151.282c-3.758-6.359-7.314-12.662-10.557-18.737l18.066-9.644
		c3.098,5.811,6.508,11.85,10.115,17.948L38.837,151.282z M18.61,113.199c-3.223-6.963-6.072-13.737-8.463-20.14l19.19-7.153
		c2.199,5.906,4.846,12.193,7.854,18.68L18.61,113.199z M3.509,71.832c-2.025-8.264-3.164-15.964-3.384-22.899l20.465-0.65
		c0.174,5.514,1.119,11.802,2.803,18.68L3.509,71.832z"/>
	<path style="fill:#242D3C;" d="M23.128,32.193L4.476,23.745c1.969-4.334,4.603-8.179,7.839-11.412l14.477,14.477
		C25.286,28.317,24.088,30.081,23.128,32.193z"/>
	<path style="fill:#242D3C;" d="M463.105,511.97c-6.935-0.215-14.643-1.354-22.907-3.382l4.877-19.886
		c6.881,1.69,13.164,2.632,18.678,2.806L463.105,511.97z M418.971,501.94c-6.395-2.391-13.174-5.238-20.14-8.479l8.622-18.573
		c6.49,3.016,12.774,5.663,18.675,7.862L418.971,501.94z M379.486,483.785c-6.047-3.233-12.355-6.789-18.739-10.575l10.437-17.613
		c6.129,3.628,12.165,7.035,17.948,10.117L379.486,483.785z"/>
	<path style="fill:#242D3C;" d="M488.303,507.606l-8.471-18.642c2.12-0.963,3.886-2.163,5.394-3.676l14.477,14.477
		C496.478,502.998,492.64,505.64,488.303,507.606z"/>
	<path style="fill:#242D3C;" d="M345.182,72.897l-11.343-17.05c46.963-31.235,130.952-78.428,165.867-43.515l-14.477,14.477
		C472.188,13.771,427.688,18.018,345.182,72.897z"/>
	<path style="fill:#242D3C;" d="M12.315,499.767C-22.583,464.869,24.6,380.842,55.832,333.864l17.052,11.333
		c-54.874,82.545-59.126,127.055-46.09,140.093L12.315,499.767z"/>
	<path style="fill:#242D3C;" d="M488.915,32.216c-0.963-2.12-2.163-3.889-3.671-5.394l14.474-14.477
		c3.238,3.236,5.873,7.071,7.841,11.41L488.915,32.216z"/>
	<path style="fill:#242D3C;" d="M47.858,511.988l-0.384-20.467c5.268-0.1,11.269-0.919,17.846-2.445l4.616,19.948
		C61.976,510.87,54.547,511.868,47.858,511.988z M90.426,502.885l-6.932-19.264c5.678-2.043,11.717-4.508,17.956-7.314l8.415,18.67
		C103.144,498.003,96.6,500.665,90.426,502.885z M128.531,485.887l-9.454-18.166c5.583-2.903,11.397-6.108,17.293-9.516
		l10.253,17.725C140.466,479.492,134.378,482.84,128.531,485.887z M164.236,465.294l-10.903-17.334
		c5.463-3.433,11.067-7.084,16.66-10.847l11.43,16.996C175.653,457.985,169.87,461.751,164.236,465.294z M198.245,442.446
		l-11.886-16.673c5.312-3.786,10.68-7.721,16.102-11.784l12.285,16.379C209.194,434.538,203.693,438.562,198.245,442.446z
		 M230.947,417.926l-12.654-16.097c5.164-4.058,10.353-8.23,15.575-12.513l12.989,15.834
		C241.525,409.524,236.213,413.784,230.947,417.926z M262.501,392.057l-13.294-15.572c5.012-4.278,10.045-8.658,15.096-13.13
		l13.576,15.329C272.739,383.238,267.608,387.7,262.501,392.057z M293.004,365.037l-13.844-15.086
		c4.869-4.47,9.746-9.024,14.625-13.665l14.108,14.843C302.926,355.851,297.962,360.485,293.004,365.037z M322.541,336.966
		l-14.364-14.589c2.368-2.335,4.741-4.685,7.109-7.053c2.368-2.368,4.721-4.736,7.05-7.112l14.597,14.356
		c-2.371,2.414-4.762,4.828-7.178,7.24C327.351,332.212,324.95,334.596,322.541,336.966z M351.09,307.931l-14.838-14.113
		c4.641-4.877,9.193-9.756,13.665-14.625l15.086,13.852C360.449,298.001,355.811,302.967,351.09,307.931z M378.654,277.915
		l-15.332-13.573c4.47-5.051,8.845-10.084,13.125-15.099l15.583,13.292C387.67,267.644,383.205,272.772,378.654,277.915z
		 M405.114,246.893l-15.831-12.989c4.283-5.225,8.456-10.419,12.511-15.578l16.1,12.654
		C413.751,236.253,409.491,241.558,405.114,246.893z M430.337,214.788l-16.374-12.293c4.068-5.414,7.99-10.783,11.773-16.092
		l16.678,11.881C438.534,203.726,434.505,209.23,430.337,214.788z M454.071,181.451l-16.998-11.412
		c3.804-5.663,7.452-11.269,10.847-16.668l17.334,10.9C461.749,169.842,457.985,175.625,454.071,181.451z M475.885,146.664
		l-17.718-10.263c3.382-5.842,6.587-11.658,9.516-17.288l18.166,9.459C482.774,134.468,479.42,140.555,475.885,146.664z
		 M494.936,109.892l-18.67-8.407c2.808-6.239,5.274-12.28,7.319-17.961l19.261,6.935
		C500.622,96.639,497.965,103.179,494.936,109.892z M508.981,69.976l-19.948-4.623c1.523-6.574,2.342-12.575,2.437-17.836
		l20.477,0.376C511.825,54.58,510.824,62.009,508.981,69.976z"/>
	<path style="fill:#242D3C;" d="M23.707,507.606c-4.339-1.969-8.174-4.608-11.41-7.841l14.477-14.477
		c1.51,1.508,3.274,2.714,5.394,3.674L23.707,507.606z"/>
	<path style="fill:#242D3C;" d="M499.721,499.764l-14.474-14.477c28.029-28.035-34.877-153.416-169.964-288.507
		C252.758,134.26,187.247,82.395,130.82,50.74C80.252,22.37,40.388,13.213,26.774,26.817L12.297,12.34
		C33.909-9.279,78.358-2.167,140.84,32.879c58.012,32.545,125.107,85.614,188.918,149.422
		C447.904,300.445,547.621,451.862,499.721,499.764z"/>
</g>
<g>
</g>
<g>
</g>
<g>
</g>
<g>
</g>
<g>
</g>
<g>
</g>
<g>
</g>
<g>
</g>
<g>
</g>
<g>
</g>
<g>
</g>
<g>
</g>
<g>
</g>
<g>
</g>
<g>
</g>
</svg>
