<?xml version="1.0" encoding="iso-8859-1"?>
<!-- Generator: Adobe Illustrator 19.0.0, SVG Export Plug-In . SVG Version: 6.00 Build 0)  -->
<svg version="1.1" id="Capa_1" xmlns="http://www.w3.org/2000/svg" xmlns:xlink="http://www.w3.org/1999/xlink" x="0px" y="0px"
	 viewBox="0 0 512 512" style="enable-background:new 0 0 512 512;" xml:space="preserve">
<g>
	<polygon style="fill:#F96232;" points="200,428 0,428 0,108 40,108 40,124 16,124 16,412 200,412 	"/>
	<rect x="248" y="412" style="fill:#F96232;" width="96" height="16"/>
</g>
<g>
	<polygon style="fill:#403E3E;" points="224,423.312 188.688,388 32,388 32,68 195.312,68 224,96.688 252.688,68 416,68 416,148 
		400,148 400,84 259.312,84 224,119.312 188.688,84 48,84 48,372 195.312,372 224,400.688 252.688,372 328,372 328,388 259.312,388 
			"/>
	<rect x="216" y="108" style="fill:#403E3E;" width="16" height="248"/>
	<rect x="64" y="108" style="fill:#403E3E;" width="64" height="16"/>
	<rect x="64" y="268" style="fill:#403E3E;" width="136" height="16"/>
	<rect x="64" y="236" style="fill:#403E3E;" width="136" height="16"/>
	<rect x="64" y="300" style="fill:#403E3E;" width="136" height="16"/>
	<rect x="64" y="332" style="fill:#403E3E;" width="136" height="16"/>
</g>
<path style="fill:#43D3E8;" d="M200,220H64v-80h136V220z M80,204h104v-48H80V204z"/>
<g>
	<rect x="264" y="204" style="fill:#403E3E;" width="16" height="16"/>
	<rect x="264" y="236" style="fill:#403E3E;" width="16" height="16"/>
	<rect x="264" y="268" style="fill:#403E3E;" width="16" height="16"/>
</g>
<path style="fill:#43D3E8;" d="M456,380h-16v-32c0-22.376,12.272-33.552,22.136-42.528c2.488-2.264,4.96-4.504,7.216-6.928
	C486.56,280.512,496,258.328,496,236c0-48.52-39.48-88-88-88s-88,39.48-88,88c0,23.136,9.4,45.272,26.456,62.344
	c2.456,2.616,4.928,4.856,7.416,7.128C363.728,314.448,376,325.624,376,348v32h-16v-32c0-15.304-7.464-22.104-16.904-30.704
	c-2.808-2.552-5.592-5.104-8.152-7.832C315.064,289.568,304,263.408,304,236c0-57.344,46.656-104,104-104s104,46.656,104,104
	c0,26.456-11.016,52.568-31.008,73.52c-2.496,2.672-5.28,5.216-8.088,7.776c-9.44,8.6-16.904,15.4-16.904,30.704V380z"/>
<g>
	<polygon style="fill:#403E3E;" points="456,428 360,428 360,380 376,380 376,412 440,412 440,380 456,380 	"/>
	<rect x="344" y="372" style="fill:#403E3E;" width="128" height="16"/>
	<rect x="400" y="420" style="fill:#403E3E;" width="16" height="24"/>
</g>
<path style="fill:#43D3E8;" d="M352,236h-16c0-39.696,32.296-72,72-72v16C377.128,180,352,205.12,352,236z"/>
<g>
	<rect x="400" y="292" style="fill:#403E3E;" width="16" height="88"/>
	<polygon style="fill:#403E3E;" points="408,303.312 370.344,265.656 381.656,254.344 408,280.688 434.344,254.344 445.656,265.656 
			"/>
</g>
<g>
</g>
<g>
</g>
<g>
</g>
<g>
</g>
<g>
</g>
<g>
</g>
<g>
</g>
<g>
</g>
<g>
</g>
<g>
</g>
<g>
</g>
<g>
</g>
<g>
</g>
<g>
</g>
<g>
</g>
</svg>
