<svg width="24" height="24" viewBox="0 0 24 24" fill="none" xmlns="http://www.w3.org/2000/svg">
<rect x="1" y="1" width="22" height="22" rx="1" stroke="#403E3E" stroke-width="0.7"/>
<line x1="5" y1="13.65" x2="19" y2="13.65" stroke="#403E3E" stroke-width="0.7"/>
<line x1="8" y1="11.65" x2="16" y2="11.65" stroke="#403E3E" stroke-width="0.7"/>
<line x1="9" y1="15.65" x2="15" y2="15.65" stroke="#43D3E8" stroke-width="0.7"/>
<rect x="7" y="19" width="10" height="2" rx="1" stroke="#F15A24" stroke-width="0.7"/>
<path d="M23 3.72727L20.2727 1H18L23 6V3.72727Z" fill="#F15A24" stroke="#F15A24" stroke-width="0.7"/>
<path d="M10.3333 8.91671H13.6667V3.70837C13.6667 3.36332 13.3867 3.08337 13.0417 3.08337H10.9583C10.6133 3.08337 10.3333 3.36332 10.3333 3.70837V8.91671ZM11.1667 3.91671H12.8333V4.33337H11.1667V3.91671ZM15.3333 4.95837V8.29171C15.3333 8.63676 15.0534 8.91671 14.7083 8.91671H14.0833V4.33337H14.7083C15.0534 4.33337 15.3333 4.61332 15.3333 4.95837ZM9.91666 8.91671H9.29166C8.94661 8.91671 8.66666 8.63676 8.66666 8.29171V4.95837C8.66666 4.61332 8.94661 4.33337 9.29166 4.33337H9.91666V8.91671Z" fill="#F15A24"/>
</svg>
