<svg width="24" height="24" viewBox="0 0 24 24" fill="none" xmlns="http://www.w3.org/2000/svg">
<path fill-rule="evenodd" clip-rule="evenodd" d="M9.4209 19.9474C9.66472 21.1486 10.7267 22.0527 11.9998 22.0527C13.273 22.0527 14.3349 21.1486 14.5788 19.9474H9.4209Z" fill="#F15A24"/>
<path d="M11.0001 4V3C11.0001 2.44772 11.4478 2 12.0001 2C12.5524 2 13.0001 2.44772 13.0001 3V4M4.19116 18H19.8086C20.4488 18 20.6931 17.1644 20.1537 16.8195C18.6806 15.8776 17.7893 14.2498 17.7893 12.5013V9.78948C17.7893 6.59204 15.1973 4 11.9999 4C8.80242 4 6.21039 6.59204 6.21039 9.78947V12.5013C6.21039 14.2498 5.31909 15.8776 3.84602 16.8195C3.30661 17.1644 3.55091 18 4.19116 18Z" stroke="#29292B"/>
<path d="M21 10C21 6.54492 19.0216 3.54823 16.1272 2.06396M3 10C3 6.49453 5.03656 3.46093 8 2" stroke="#43D3E8" stroke-width="0.7"/>
<path d="M16.0001 10C16.0001 8.27246 14.9009 6.77411 13.293 6.03198" stroke="#F15A24"/>
</svg>
