<svg width="24" height="24" viewBox="0 0 24 24" fill="none" xmlns="http://www.w3.org/2000/svg">
<path d="M10 22H5C3.34315 22 2 20.6569 2 19L2 14H4C4 12.8954 4.89543 12 6 12C7.10457 12 8 12.8954 8 14L10 14V16C8.89543 16 8 16.8954 8 18C8 19.1046 8.89543 20 10 20L10 22Z" fill="#43D3E8" stroke="#29292B"/>
<path d="M12.0359 4.66977L17.232 1.66977C18.1886 1.11749 19.4118 1.44524 19.9641 2.40182L22.9641 7.59798L21.232 8.59798C21.7843 9.55456 21.4566 10.7777 20.5 11.33C19.5434 11.8823 18.3202 11.5546 17.7679 10.598L16.0359 11.598L15.0359 9.86592C15.9925 9.31364 16.3202 8.09046 15.7679 7.13387C15.2157 6.17729 13.9925 5.84954 13.0359 6.40182L12.0359 4.66977Z" fill="#F15A24" stroke="#29292B"/>
<path d="M18 20C18 21.1046 17.1046 22 16 22L10 22V20C8.89543 20 8 19.1046 8 18C8 16.8954 8.89543 16 10 16L10 14L12 14C12 15.1046 12.8954 16 14 16C15.1046 16 16 15.1046 16 14L18 14V20Z" stroke="#29292B"/>
<path d="M2 14L2 8C2 6.89543 2.89543 6 4 6L10 6V8C11.1046 8 12 8.89543 12 10C12 11.1046 11.1046 12 10 12V14H8C8 12.8954 7.10457 12 6 12C4.89543 12 4 12.8954 4 14H2Z" stroke="#29292B"/>
</svg>
