<?xml version="1.0" encoding="iso-8859-1"?>
<!-- Generator: Adobe Illustrator 19.0.0, SVG Export Plug-In . SVG Version: 6.00 Build 0)  -->
<svg version="1.1" id="Layer_1" xmlns="http://www.w3.org/2000/svg" xmlns:xlink="http://www.w3.org/1999/xlink" x="0px" y="0px"
	 viewBox="0 0 512 512" style="enable-background:new 0 0 512 512;" xml:space="preserve">
<path style="fill:#F96232;" d="M343.078,63.813c-33.992,0-64.788,13.786-87.071,36.065c-22.285-22.285-53.076-36.065-87.078-36.065
	c-68.019,0-123.151,55.14-123.151,123.141c0,34.061,13.829,64.886,36.175,87.178l174.054,174.054l174.152-174.149
	c22.287-22.28,36.063-53.069,36.063-87.084C466.222,118.953,411.09,63.813,343.078,63.813z"/>
<polygon style="fill:#242D3C;" points="372.987,232.65 360.338,245.299 360.338,194.598 322.284,232.65 300.777,232.65 
	264.98,268.447 264.98,171.456 203.786,232.65 182.282,232.65 169.623,245.304 169.623,194.593 131.574,232.65 0,232.65 0,250.611 
	139.013,250.611 151.662,237.962 151.662,288.666 189.716,250.611 211.223,250.611 247.02,214.815 247.02,311.808 308.214,250.611 
	329.72,250.611 342.377,237.957 342.377,288.668 380.426,250.611 512,250.611 512,232.65 "/>
<path style="fill:#FFFFFF;" d="M94.979,186.954H77.015c0-50.675,41.231-91.904,91.912-91.904v17.961
	C128.151,113.011,94.979,146.184,94.979,186.954z"/>
<g>
</g>
<g>
</g>
<g>
</g>
<g>
</g>
<g>
</g>
<g>
</g>
<g>
</g>
<g>
</g>
<g>
</g>
<g>
</g>
<g>
</g>
<g>
</g>
<g>
</g>
<g>
</g>
<g>
</g>
</svg>
