<?xml version="1.0" encoding="iso-8859-1"?>
<!-- Generator: Adobe Illustrator 19.0.0, SVG Export Plug-In . SVG Version: 6.00 Build 0)  -->
<svg version="1.1" id="Layer_1" xmlns="http://www.w3.org/2000/svg" xmlns:xlink="http://www.w3.org/1999/xlink" x="0px" y="0px"
	 viewBox="0 0 512 512" style="enable-background:new 0 0 512 512;" xml:space="preserve">
<g>
	<path style="fill:#242D3C;" d="M95.204,398.787c-4.764,0-8.95-3.469-9.718-8.32c-0.842-5.376,2.826-10.412,8.2-11.256
		c88.343-13.908,152.463-89.037,152.463-178.644c0-5.437,4.406-9.846,9.846-9.846c5.44,0,9.846,4.408,9.846,9.846
		c0,99.364-71.114,182.674-169.093,198.098C96.23,398.743,95.713,398.787,95.204,398.787z"/>
	<path style="fill:#242D3C;" d="M426.714,332.396c-1.055,0-2.115-0.166-3.167-0.52c-5.151-1.748-7.91-7.334-6.167-12.488
		c12.938-38.175,19.497-78.152,19.497-118.822c0-99.735-81.139-180.874-180.877-180.874c-99.735,0-180.877,81.137-180.877,180.874
		c0,5.437-4.406,9.846-9.846,9.846c-5.44,0-9.846-4.411-9.846-9.846C55.427,89.974,145.403,0,255.997,0
		s200.571,89.974,200.571,200.566c0,42.826-6.909,84.928-20.536,125.143C434.642,329.807,430.807,332.396,426.714,332.396z"/>
	<path style="fill:#242D3C;" d="M116.024,433.615c-4.488,0-8.55-3.098-9.59-7.662c-1.208-5.302,2.115-10.58,7.414-11.786
		c98.765-22.472,170.44-112.307,170.44-213.601c0-15.601-12.69-28.285-28.291-28.285c-15.608,0-28.308,12.685-28.308,28.285
		c0,83.919-62.932,153.408-146.388,161.626c-5.422,0.522-10.235-3.425-10.765-8.837c-0.532-5.409,3.423-10.227,8.832-10.762
		c73.331-7.222,128.627-68.278,128.627-142.026c0-26.452,21.532-47.982,48-47.982c26.46,0,47.985,21.527,47.985,47.982
		c0,110.397-78.124,208.305-185.764,232.801C117.484,433.536,116.749,433.615,116.024,433.615z"/>
	<path style="fill:#242D3C;" d="M270.797,512c-2.522,0-5.043-0.96-6.963-2.885c-3.4-3.395-6.653-6.838-9.72-10.26
		c-5.955,3.786-11.85,7.291-17.861,10.606c-4.759,2.632-10.747,0.904-13.376-3.855c-2.632-4.759-0.904-10.749,3.855-13.379
		c7.962-4.406,15.729-9.149,23.744-14.525c4.411-2.949,10.36-1.882,13.466,2.414c0.248,0.351,0.538,0.655,0.817,0.97
		c4.06,4.803,8.376,9.477,13,14.106c3.848,3.848,3.848,10.081,0,13.921C275.84,511.04,273.318,512,270.797,512z"/>
	<path style="fill:#242D3C;" d="M351.457,479.685c-1.938,0-3.871-0.576-5.486-1.651c-26.394-17.544-47.892-41.644-62.18-69.696
		c-4.134-8.102-7.652-16.543-10.532-25.236c-33.866,38.684-77.24,66.885-126.477,82.048c-5.202,1.603-10.714-1.313-12.311-6.51
		c-1.605-5.192,1.313-10.706,6.51-12.306c51.471-15.857,96.049-47.053,128.906-90.222c2.332-3.059,6.216-4.477,9.974-3.651
		c3.75,0.837,6.674,3.773,7.483,7.532c2.972,13.783,7.68,27.041,13.988,39.406c12.71,24.96,31.834,46.423,55.306,62.08
		c2.788,1.743,4.644,4.831,4.644,8.361C361.285,475.274,356.897,479.685,351.457,479.685z"/>
	<path style="fill:#242D3C;" d="M403.807,422.001c-1.477,0-2.972-0.333-4.388-1.034c-36.444-18.153-59.092-54.664-59.092-95.276
		c0-8.965,1.142-17.923,3.392-26.614c0.072-0.269,0.151-0.535,0.246-0.801c6.682-18.982,11.402-38.682,14.021-58.545
		c1.725-12.613,2.601-25.777,2.601-39.165c0-57.664-46.92-104.584-104.586-104.584c-57.669,0-104.584,46.92-104.584,104.584
		c0,47.094-38.282,85.714-85.335,86.1c-5.409,0.005-9.882-4.329-9.925-9.761c-0.044-5.44,4.326-9.884,9.766-9.93
		c36.283-0.294,65.8-30.088,65.8-66.406c0-68.526,55.752-124.275,124.28-124.275s124.28,55.749,124.28,124.275
		c0,14.277-0.937,28.339-2.772,41.789c-2.775,21.023-7.762,41.912-14.822,62.052c-1.769,6.961-2.662,14.118-2.662,21.281
		c0,33.096,18.463,62.843,48.184,77.647c4.864,2.424,6.848,8.338,4.424,13.202C410.903,420.001,407.427,422.001,403.807,422.001z"/>
	<path style="fill:#242D3C;" d="M380.547,452.861c-1.641,0-3.305-0.407-4.831-1.272c-45.368-25.592-73.551-73.841-73.551-125.901
		c0-12.454,1.628-24.904,4.841-37.02c0.087-0.425,0.207-0.842,0.353-1.239c4.042-11.277,7.375-23.163,9.894-35.341
		c3.446-16.883,5.189-34.227,5.189-51.525c0-36.628-29.806-66.422-66.445-66.422c-36.641,0-66.458,29.793-66.458,66.422
		c0,66.514-51.994,121.037-118.369,124.124c-5.427,0.274-10.04-3.945-10.294-9.377c-0.253-5.43,3.945-10.04,9.377-10.294
		c55.846-2.598,99.592-48.479,99.592-104.453c0-47.48,38.648-86.113,86.152-86.113c47.496,0,86.139,38.63,86.139,86.113
		c0,18.616-1.884,37.281-5.596,55.488c-2.673,12.902-6.185,25.495-10.447,37.466c-2.813,10.529-4.237,21.356-4.237,32.172
		c0,44.964,24.346,86.641,63.537,108.749c4.739,2.673,6.41,8.681,3.738,13.414C387.32,451.057,383.985,452.861,380.547,452.861z"/>
	<path style="fill:#242D3C;" d="M421.727,388.291c-1.413,0-2.844-0.305-4.209-0.945c-23.726-11.233-39.06-35.436-39.06-61.655
		c0-5.294,0.632-10.614,1.884-15.818c0.064-0.261,0.136-0.52,0.225-0.778c0.151-0.466,0.328-0.929,0.504-1.398
		c5.315-15.552,9.446-31.516,12.278-47.442c3.136-17.167,4.9-34.668,5.245-52.068c0.102-2.637,0.143-5.112,0.143-7.621
		c0-78.71-64.038-142.738-142.743-142.738S113.26,121.856,113.26,200.566c0,26.102-21.23,47.629-47.327,47.987
		c-0.049,0-0.092,0-0.138,0c-5.379,0-9.769-4.321-9.846-9.713c-0.072-5.437,4.275-9.91,9.713-9.979
		c15.383-0.212,27.901-12.908,27.901-28.296c0-89.562,72.865-162.429,162.435-162.429s162.435,72.865,162.435,162.429
		c0,2.765-0.046,5.494-0.154,8.197c-0.363,18.268-2.227,36.836-5.545,54.989c-3.018,16.94-7.421,33.956-13.097,50.527
		c-0.049,0.143-0.102,0.279-0.156,0.417l-0.115,0.299c-0.804,3.53-1.216,7.122-1.216,10.696c0,18.647,10.911,35.863,27.791,43.85
		c4.915,2.327,7.014,8.202,4.685,13.12C428.951,386.212,425.411,388.291,421.727,388.291z"/>
	<path style="fill:#242D3C;" d="M315.192,500.626c-2.156,0-4.329-0.709-6.144-2.161c-11.005-8.804-21.138-18.629-30.113-29.199
		c-6.193-7.278-11.896-14.897-17.027-22.753c-23.488,18.831-49.416,34.145-77.228,45.599c-1.185,0.489-2.46,0.742-3.748,0.742
		c-5.44,0-9.866-4.411-9.866-9.851c0-4.306,2.76-7.969,6.61-9.303c29.204-12.088,56.2-28.733,80.23-49.472
		c2.217-1.915,5.179-2.732,8.072-2.255c2.893,0.486,5.414,2.237,6.881,4.78c5.98,10.337,13.074,20.352,21.082,29.755
		c8.172,9.626,17.385,18.565,27.412,26.583c4.247,3.397,4.928,9.595,1.531,13.839C320.942,499.361,318.08,500.626,315.192,500.626z"
		/>
</g>
<rect x="9.843" y="255.155" style="fill:#F96232;" width="492.314" height="43.32"/>
<g>
</g>
<g>
</g>
<g>
</g>
<g>
</g>
<g>
</g>
<g>
</g>
<g>
</g>
<g>
</g>
<g>
</g>
<g>
</g>
<g>
</g>
<g>
</g>
<g>
</g>
<g>
</g>
<g>
</g>
</svg>
