<?xml version="1.0" encoding="iso-8859-1"?>
<!-- Generator: Adobe Illustrator 19.0.0, SVG Export Plug-In . SVG Version: 6.00 Build 0)  -->
<svg version="1.1" id="Capa_1" xmlns="http://www.w3.org/2000/svg" xmlns:xlink="http://www.w3.org/1999/xlink" x="0px" y="0px"
	 viewBox="0 0 512 512" style="enable-background:new 0 0 512 512;" xml:space="preserve">
<g>
	<rect x="202.667" y="490.667" style="fill:#403E3E;" width="309.333" height="21.333"/>
	<rect y="490.667" style="fill:#403E3E;" width="181.333" height="21.333"/>
	<path style="fill:#403E3E;" d="M49.568,498.795l-13.813-16.245C113.557,416.427,160,307.808,160,192h21.333
		C181.333,313.995,132.075,428.683,49.568,498.795z"/>
	<path style="fill:#403E3E;" d="M291.765,498.795C209.259,428.683,160,313.995,160,192h21.333
		c0,115.808,46.443,224.427,124.235,290.539L291.765,498.795z"/>
	<path style="fill:#403E3E;" d="M462.432,498.795C379.925,428.672,330.667,313.995,330.667,192H352
		c0,115.808,46.443,224.427,124.235,290.539L462.432,498.795z"/>
	
		<rect x="16.008" y="452.051" transform="matrix(-0.7071 0.7071 -0.7071 -0.7071 381.1862 791.4677)" style="fill:#403E3E;" width="21.333" height="45.258"/>
	
		<rect x="292.035" y="463.991" transform="matrix(-0.7071 0.7071 -0.7071 -0.7071 872.7987 587.7901)" style="fill:#403E3E;" width="45.258" height="21.333"/>
	
		<rect x="462.705" y="464.02" transform="matrix(-0.7071 0.7071 -0.7071 -0.7071 1164.1708 467.1572)" style="fill:#403E3E;" width="45.258" height="21.333"/>
	<rect x="138.667" y="181.333" style="fill:#403E3E;" width="234.667" height="21.333"/>
	<rect x="160" y="160" style="fill:#403E3E;" width="21.333" height="32"/>
	<rect x="330.667" y="160" style="fill:#403E3E;" width="21.333" height="32"/>
	<rect x="160" y="405.333" style="fill:#403E3E;" width="21.333" height="96"/>
</g>
<circle style="fill:#F96232;" cx="426.667" cy="85.333" r="85.333"/>
<g>
	<path style="fill:#403E3E;" d="M53.333,181.333H32c0-41.173,33.493-74.667,74.667-74.667V128
		C77.259,128,53.333,151.925,53.333,181.333z"/>
	<path style="fill:#403E3E;" d="M53.333,181.333H32c0-17.643-14.357-32-32-32V128C29.408,128,53.333,151.925,53.333,181.333z"/>
</g>
<g>
</g>
<g>
</g>
<g>
</g>
<g>
</g>
<g>
</g>
<g>
</g>
<g>
</g>
<g>
</g>
<g>
</g>
<g>
</g>
<g>
</g>
<g>
</g>
<g>
</g>
<g>
</g>
<g>
</g>
</svg>
