<svg width="80" height="80" viewBox="0 0 80 80" fill="none" xmlns="http://www.w3.org/2000/svg">
<path d="M56.6667 60V69.3333C56.6667 71.5425 54.8758 73.3333 52.6667 73.3333H14C11.7909 73.3333 10 71.5425 10 69.3333V14C10 11.7909 11.7909 10 14 10H40H52.6667C54.8758 10 56.6667 11.7867 56.6667 13.9958C56.6667 15.6278 56.6667 17.906 56.6667 21.0749" stroke="#403E3E" stroke-width="2"/>
<path d="M26.6666 16.6667H36.6666" stroke="#403E3E" stroke-width="2"/>
<path d="M23.0013 25H31.3347" stroke="#403E3E" stroke-width="2"/>
<path d="M23.3334 38.3333H38.3334" stroke="#403E3E" stroke-width="2"/>
<path d="M20.3703 25H17.6666C17.1143 25 16.6666 25.4477 16.6666 26V30.6667C16.6666 31.219 17.1143 31.6667 17.6666 31.6667H40" stroke="#43D3E8" stroke-width="2"/>
<path d="M35 25H40" stroke="#43D3E8" stroke-width="2"/>
<path d="M20.3703 38.3333H17.6666C17.1143 38.3333 16.6666 38.7811 16.6666 39.3333V44C16.6666 44.5523 17.1143 45 17.6666 45H43.3333" stroke="#43D3E8" stroke-width="2"/>
<path d="M16.6666 51.6667H30" stroke="#403E3E" stroke-width="2"/>
<rect x="16.6666" y="60" width="33.3333" height="6.66666" rx="1" stroke="#F15A24" stroke-width="2"/>
<path d="M56.6667 60C66.594 56.6909 73.2362 46.8117 73.3323 23.8402C73.3334 23.5641 73.1084 23.3334 72.8322 23.3333C66.4548 23.3312 62.3525 23.249 56.6667 20C51.0267 23.2229 45.3867 23.3297 40.4999 23.3332C40.2237 23.3334 39.9999 23.5641 40.0011 23.8402C40.0971 46.8117 46.7394 56.6909 56.6667 60Z" stroke="#403E3E" stroke-width="2"/>
<path d="M56.6667 56.6667C64.6248 53.9034 69.9441 45.6427 69.9996 26.4156C70.0001 26.2499 69.8644 26.1111 69.6987 26.1111C64.5398 26.1101 61.2449 26.0584 56.6667 23.3333C52.1161 26.042 47.5655 26.1094 43.6331 26.1111C43.4674 26.1111 43.3333 26.2499 43.3338 26.4156C43.3893 45.6427 48.7086 53.9034 56.6667 56.6667Z" fill="#43D3E8"/>
<path d="M56.6666 23.3333V56.6667" stroke="white" stroke-width="2"/>
</svg>
