<svg width="80" height="80" viewBox="0 0 80 80" fill="none" xmlns="http://www.w3.org/2000/svg">
<path d="M23.3334 26.6667L33.3334 36.6667" stroke="#43D3E8" stroke-width="2"/>
<path d="M46.6666 53.3333L56.6666 63.3333" stroke="#43D3E8" stroke-width="2"/>
<path d="M23.3334 36.6667L33.3334 26.6667" stroke="#43D3E8" stroke-width="2"/>
<path d="M46.6666 63.3333L56.6666 53.3333" stroke="#43D3E8" stroke-width="2"/>
<path d="M31.6667 55.0002L56.6667 26.6668M56.6667 26.6668L46.6674 26.6666M56.6667 26.6668L56.6667 36.6666" stroke="#F15A24" stroke-width="2"/>
<rect x="16.6666" y="10" width="46.6667" height="63.3333" rx="4" stroke="#403E3E" stroke-width="2"/>
<path d="M30 4.33331C30 3.78103 30.4477 3.33331 31 3.33331H49C49.5523 3.33331 50 3.78103 50 4.33331V9.99998H30V4.33331Z" stroke="#403E3E" stroke-width="2"/>
<path d="M23.3334 15.6667C23.3334 16.219 23.7811 16.6667 24.3334 16.6667H55.6667C56.219 16.6667 56.6667 16.219 56.6667 15.6667V10H23.3334V15.6667Z" stroke="#403E3E" stroke-width="2"/>
<circle cx="28.3334" cy="58.3333" r="5" stroke="#F15A24" stroke-width="2"/>
</svg>
