<svg width="80" height="80" viewBox="0 0 80 80" fill="none" xmlns="http://www.w3.org/2000/svg">
<path d="M19.1666 33.3334H16.6666V43.3334H19.1666V33.3334Z" fill="#F96232"/>
<path d="M14.1666 20H11.6666V43.3333H14.1666V20Z" fill="#F96232"/>
<path d="M24.1666 28.3334H21.6666V43.3334H24.1666V28.3334Z" fill="#F96232"/>
<path d="M29.1666 34.5834H26.6666V43.3334H29.1666V34.5834Z" fill="#F96232"/>
<path d="M34.1666 41.6666L31.6666 36.6666V43.3333H34.1666V41.6666Z" fill="#F96232"/>
<path d="M39.1666 33.3334H36.6666V41.6667L39.1666 42.9167V33.3334Z" fill="#F96232"/>
<path d="M44.1666 30.8334H41.6666V43.3334H44.1666V30.8334Z" fill="#F96232"/>
<path d="M49.1666 25H46.6666V43.3334H49.1666V25Z" fill="#F96232"/>
<circle cx="46.6667" cy="33.3333" r="15.6667" stroke="#403E3E" stroke-width="2"/>
<path d="M59 33.3333C59 40.1448 53.4782 45.6667 46.6667 45.6667C39.8552 45.6667 34.3334 40.1448 34.3334 33.3333C34.3334 26.5218 39.8552 21 46.6667 21C53.4782 21 59 26.5218 59 33.3333Z" stroke="#43D3E8" stroke-width="2"/>
<rect x="57.3493" y="51.4672" width="4.92941" height="23.7982" rx="2.46471" transform="rotate(-44 57.3493 51.4672)" stroke="#403E3E" stroke-width="2"/>
<path d="M58.5644 49.3116L55.949 46.1478" stroke="#403E3E" stroke-width="2"/>
<line x1="7.66663" y1="10" x2="7.66663" y2="46.6667" stroke="#403E3E" stroke-width="2"/>
<path d="M38.3334 46.6666H6.66671" stroke="#403E3E" stroke-width="2"/>
<path d="M30 54.4998L6.66667 54.4997" stroke="#403E3E" stroke-width="2"/>
<path d="M26.6666 61.1665L6.66663 61.1665" stroke="#403E3E" stroke-width="2"/>
<path d="M43.3334 67.8333L6.66671 67.8332" stroke="#403E3E" stroke-width="2"/>
</svg>
