<svg width="80" height="80" viewBox="0 0 80 80" fill="none" xmlns="http://www.w3.org/2000/svg">
<path d="M41.2743 21.2605L42.2661 21.3884L42.3521 20.7213L41.7667 20.3901L41.2743 21.2605ZM38.4153 14.2913L39.3769 14.5656L39.6127 13.7391L38.831 13.3818L38.4153 14.2913ZM47.3066 28.1283L48.3066 28.1283L48.3066 27.1283H47.3066V28.1283ZM41.7667 20.3901C40.2218 19.5161 39.1826 17.8603 39.1826 15.963H37.1826C37.1826 18.61 38.6352 20.9164 40.7819 22.1308L41.7667 20.3901ZM39.1826 15.963C39.1826 15.4769 39.2506 15.0084 39.3769 14.5656L37.4536 14.017C37.2769 14.6364 37.1826 15.2896 37.1826 15.963H39.1826ZM38.831 13.3818C36.78 12.4443 34.5001 11.9224 32.1011 11.9224V13.9224C34.2075 13.9224 36.2042 14.3802 37.9995 15.2008L38.831 13.3818ZM32.1011 11.9224C23.1511 11.9224 15.8956 19.1778 15.8956 28.1278H17.8956C17.8956 20.2824 24.2556 13.9224 32.1011 13.9224V11.9224ZM15.8956 28.1278C15.8956 37.0779 23.1511 44.3333 32.1011 44.3333V42.3333C24.2556 42.3333 17.8956 35.9733 17.8956 28.1278H15.8956ZM32.1011 44.3333C41.051 44.3333 48.3063 37.0781 48.3066 28.1283L46.3066 28.1283C46.3064 35.9735 39.9464 42.3333 32.1011 42.3333V44.3333ZM47.3066 27.1283H47.3066C47.3066 27.1283 47.3066 27.1283 47.3066 27.1283C47.3066 27.1283 47.3066 27.1283 47.3066 27.1283C47.3066 27.1283 47.3066 27.1283 47.3066 27.1283C47.3066 27.1283 47.3066 27.1283 47.3066 27.1283H47.3066H47.3066H47.3066C47.3066 27.1283 47.3066 27.1283 47.3066 27.1283C47.3066 27.1283 47.3066 27.1283 47.3066 27.1283C47.3066 27.1283 47.3066 27.1283 47.3066 27.1283C47.3066 27.1283 47.3066 27.1283 47.3066 27.1283H47.3066H47.3066C47.3066 27.1283 47.3066 27.1283 47.3066 27.1283C47.3066 27.1283 47.3066 27.1283 47.3066 27.1283C47.3066 27.1283 47.3066 27.1283 47.3066 27.1283C47.3066 27.1283 47.3066 27.1283 47.3066 27.1283H47.3066H47.3066C47.3066 27.1283 47.3066 27.1283 47.3066 27.1283C47.3066 27.1283 47.3066 27.1283 47.3066 27.1283C47.3066 27.1283 47.3066 27.1283 47.3066 27.1283C47.3066 27.1283 47.3066 27.1283 47.3066 27.1283C47.3066 27.1283 47.3066 27.1283 47.3065 27.1283H47.3065H47.3065C47.3065 27.1283 47.3065 27.1283 47.3065 27.1283C47.3065 27.1283 47.3065 27.1283 47.3065 27.1283C47.3065 27.1283 47.3065 27.1283 47.3065 27.1283C47.3065 27.1283 47.3065 27.1283 47.3065 27.1283H47.3065H47.3065C47.3065 27.1283 47.3065 27.1283 47.3065 27.1283C47.3065 27.1283 47.3065 27.1283 47.3065 27.1283C47.3065 27.1283 47.3065 27.1283 47.3065 27.1283C47.3065 27.1283 47.3065 27.1283 47.3065 27.1283C47.3065 27.1283 47.3065 27.1283 47.3065 27.1283H47.3065H47.3065C47.3065 27.1283 47.3065 27.1283 47.3065 27.1283C47.3065 27.1283 47.3065 27.1283 47.3065 27.1283C47.3065 27.1283 47.3065 27.1283 47.3065 27.1283C47.3065 27.1283 47.3065 27.1283 47.3065 27.1283H47.3065H47.3065C47.3065 27.1283 47.3065 27.1283 47.3065 27.1283C47.3065 27.1283 47.3065 27.1283 47.3065 27.1283C47.3065 27.1283 47.3065 27.1283 47.3065 27.1283C47.3065 27.1283 47.3065 27.1283 47.3065 27.1283H47.3065H47.3065C47.3065 27.1283 47.3065 27.1283 47.3065 27.1283C47.3065 27.1283 47.3065 27.1283 47.3065 27.1283C47.3065 27.1283 47.3065 27.1283 47.3065 27.1283C47.3065 27.1283 47.3065 27.1283 47.3065 27.1283C47.3065 27.1283 47.3065 27.1283 47.3065 27.1283H47.3065H47.3065C47.3065 27.1283 47.3065 27.1283 47.3065 27.1283C47.3065 27.1283 47.3065 27.1283 47.3065 27.1283C47.3065 27.1283 47.3065 27.1283 47.3065 27.1283C47.3065 27.1283 47.3065 27.1283 47.3065 27.1283H47.3065H47.3065C47.3065 27.1283 47.3065 27.1283 47.3065 27.1283C47.3065 27.1283 47.3065 27.1283 47.3065 27.1283C47.3065 27.1283 47.3065 27.1283 47.3065 27.1283C47.3065 27.1283 47.3065 27.1283 47.3065 27.1283C47.3065 27.1283 47.3065 27.1283 47.3065 27.1283H47.3065H47.3065C47.3065 27.1283 47.3065 27.1283 47.3065 27.1283C47.3065 27.1283 47.3065 27.1283 47.3065 27.1283C47.3065 27.1283 47.3065 27.1283 47.3065 27.1283C47.3065 27.1283 47.3065 27.1283 47.3065 27.1283H47.3064H47.3064C47.3064 27.1283 47.3064 27.1283 47.3064 27.1283C47.3064 27.1283 47.3064 27.1283 47.3064 27.1283C47.3064 27.1283 47.3064 27.1283 47.3064 27.1283C47.3064 27.1283 47.3064 27.1283 47.3064 27.1283H47.3064H47.3064H47.3064C47.3064 27.1283 47.3064 27.1283 47.3064 27.1283C47.3064 27.1283 47.3064 27.1283 47.3064 27.1283C47.3064 27.1283 47.3064 27.1283 47.3064 27.1283C47.3064 27.1283 47.3064 27.1283 47.3064 27.1283H47.3064H47.3064C47.3064 27.1283 47.3064 27.1283 47.3064 27.1283C47.3064 27.1283 47.3064 27.1283 47.3064 27.1283C47.3064 27.1283 47.3064 27.1283 47.3064 27.1283C47.3064 27.1283 47.3064 27.1283 47.3064 27.1283H47.3064H47.3064H47.3064C47.3064 27.1283 47.3064 27.1283 47.3064 27.1283C47.3064 27.1283 47.3064 27.1283 47.3064 27.1283C47.3064 27.1283 47.3064 27.1283 47.3064 27.1283C47.3064 27.1283 47.3064 27.1283 47.3064 27.1283H47.3064H47.3064C47.3064 27.1283 47.3064 27.1283 47.3064 27.1283C47.3064 27.1283 47.3064 27.1283 47.3064 27.1283C47.3064 27.1283 47.3064 27.1283 47.3064 27.1283C47.3064 27.1283 47.3064 27.1283 47.3064 27.1283H47.3064H47.3064C47.3064 27.1283 47.3064 27.1283 47.3064 27.1283C47.3064 27.1283 47.3064 27.1283 47.3064 27.1283C47.3064 27.1283 47.3064 27.1283 47.3064 27.1283C47.3064 27.1283 47.3064 27.1283 47.3064 27.1283C47.3064 27.1283 47.3064 27.1283 47.3064 27.1283H47.3064H47.3064C47.3064 27.1283 47.3064 27.1283 47.3064 27.1283C47.3064 27.1283 47.3064 27.1283 47.3064 27.1283C47.3064 27.1283 47.3064 27.1283 47.3064 27.1283C47.3064 27.1283 47.3064 27.1283 47.3064 27.1283H47.3064H47.3064C47.3064 27.1283 47.3064 27.1283 47.3064 27.1283C47.3064 27.1283 47.3064 27.1283 47.3064 27.1283C47.3064 27.1283 47.3064 27.1283 47.3064 27.1283C47.3064 27.1283 47.3064 27.1283 47.3064 27.1283C47.3064 27.1283 47.3064 27.1283 47.3064 27.1283H47.3064H47.3063C47.3063 27.1283 47.3063 27.1283 47.3063 27.1283C47.3063 27.1283 47.3063 27.1283 47.3063 27.1283C47.3063 27.1283 47.3063 27.1283 47.3063 27.1283C47.3063 27.1283 47.3063 27.1283 47.3063 27.1283H47.3063H47.3063C47.3063 27.1283 47.3063 27.1283 47.3063 27.1283C47.3063 27.1283 47.3063 27.1283 47.3063 27.1283C47.3063 27.1283 47.3063 27.1283 47.3063 27.1283C47.3063 27.1283 47.3063 27.1283 47.3063 27.1283H47.3063H47.3063C47.3063 27.1283 47.3063 27.1283 47.3063 27.1283C47.3063 27.1283 47.3063 27.1283 47.3063 27.1283C47.3063 27.1283 47.3063 27.1283 47.3063 27.1283C47.3063 27.1283 47.3063 27.1283 47.3063 27.1283C47.3063 27.1283 47.3063 27.1283 47.3063 27.1283H47.3063H47.3063C47.3063 27.1283 47.3063 27.1283 47.3063 27.1283C47.3063 27.1283 47.3063 27.1283 47.3063 27.1283C47.3063 27.1283 47.3063 27.1283 47.3063 27.1283C47.3063 27.1283 47.3063 27.1283 47.3063 27.1283H47.3063H47.3063C47.3063 27.1283 47.3063 27.1283 47.3063 27.1283C47.3063 27.1283 47.3063 27.1283 47.3063 27.1283C47.3063 27.1283 47.3063 27.1283 47.3063 27.1283C47.3063 27.1283 47.3063 27.1283 47.3063 27.1283C47.3063 27.1283 47.3063 27.1283 47.3063 27.1283H47.3063H47.3063C47.3063 27.1283 47.3063 27.1283 47.3063 27.1283C47.3063 27.1283 47.3063 27.1283 47.3063 27.1283C47.3063 27.1283 47.3063 27.1283 47.3063 27.1283C47.3063 27.1283 47.3063 27.1283 47.3063 27.1283H47.3063H47.3063C47.3063 27.1283 47.3063 27.1283 47.3063 27.1283C47.3063 27.1283 47.3063 27.1283 47.3063 27.1283C47.3063 27.1283 47.3063 27.1283 47.3063 27.1283C47.3063 27.1283 47.3063 27.1283 47.3063 27.1283H47.3063H47.3063H47.3063C47.3063 27.1283 47.3063 27.1283 47.3063 27.1283C47.3063 27.1283 47.3063 27.1283 47.3063 27.1283C47.3063 27.1283 47.3063 27.1283 47.3063 27.1283C47.3063 27.1283 47.3063 27.1283 47.3063 27.1283H47.3063V29.1283H47.3063C47.3063 29.1283 47.3063 29.1283 47.3063 29.1283C47.3063 29.1283 47.3063 29.1283 47.3063 29.1283C47.3063 29.1283 47.3063 29.1283 47.3063 29.1283C47.3063 29.1283 47.3063 29.1283 47.3063 29.1283H47.3063H47.3063H47.3063C47.3063 29.1283 47.3063 29.1283 47.3063 29.1283C47.3063 29.1283 47.3063 29.1283 47.3063 29.1283C47.3063 29.1283 47.3063 29.1283 47.3063 29.1283C47.3063 29.1283 47.3063 29.1283 47.3063 29.1283H47.3063H47.3063C47.3063 29.1283 47.3063 29.1283 47.3063 29.1283C47.3063 29.1283 47.3063 29.1283 47.3063 29.1283C47.3063 29.1283 47.3063 29.1283 47.3063 29.1283C47.3063 29.1283 47.3063 29.1283 47.3063 29.1283H47.3063H47.3063C47.3063 29.1283 47.3063 29.1283 47.3063 29.1283C47.3063 29.1283 47.3063 29.1283 47.3063 29.1283C47.3063 29.1283 47.3063 29.1283 47.3063 29.1283C47.3063 29.1283 47.3063 29.1283 47.3063 29.1283C47.3063 29.1283 47.3063 29.1283 47.3063 29.1283H47.3063H47.3063C47.3063 29.1283 47.3063 29.1283 47.3063 29.1283C47.3063 29.1283 47.3063 29.1283 47.3063 29.1283C47.3063 29.1283 47.3063 29.1283 47.3063 29.1283C47.3063 29.1283 47.3063 29.1283 47.3063 29.1283H47.3063H47.3063C47.3063 29.1283 47.3063 29.1283 47.3063 29.1283C47.3063 29.1283 47.3063 29.1283 47.3063 29.1283C47.3063 29.1283 47.3063 29.1283 47.3063 29.1283C47.3063 29.1283 47.3063 29.1283 47.3063 29.1283C47.3063 29.1283 47.3063 29.1283 47.3063 29.1283H47.3063H47.3063C47.3063 29.1283 47.3063 29.1283 47.3063 29.1283C47.3063 29.1283 47.3063 29.1283 47.3063 29.1283C47.3063 29.1283 47.3063 29.1283 47.3063 29.1283C47.3063 29.1283 47.3063 29.1283 47.3063 29.1283H47.3063H47.3063C47.3063 29.1283 47.3063 29.1283 47.3063 29.1283C47.3063 29.1283 47.3063 29.1283 47.3063 29.1283C47.3063 29.1283 47.3063 29.1283 47.3063 29.1283C47.3063 29.1283 47.3063 29.1283 47.3063 29.1283H47.3064H47.3064C47.3064 29.1283 47.3064 29.1283 47.3064 29.1283C47.3064 29.1283 47.3064 29.1283 47.3064 29.1283C47.3064 29.1283 47.3064 29.1283 47.3064 29.1283C47.3064 29.1283 47.3064 29.1283 47.3064 29.1283C47.3064 29.1283 47.3064 29.1283 47.3064 29.1283H47.3064H47.3064C47.3064 29.1283 47.3064 29.1283 47.3064 29.1283C47.3064 29.1283 47.3064 29.1283 47.3064 29.1283C47.3064 29.1283 47.3064 29.1283 47.3064 29.1283C47.3064 29.1283 47.3064 29.1283 47.3064 29.1283H47.3064H47.3064C47.3064 29.1283 47.3064 29.1283 47.3064 29.1283C47.3064 29.1283 47.3064 29.1283 47.3064 29.1283C47.3064 29.1283 47.3064 29.1283 47.3064 29.1283C47.3064 29.1283 47.3064 29.1283 47.3064 29.1283C47.3064 29.1283 47.3064 29.1283 47.3064 29.1283H47.3064H47.3064C47.3064 29.1283 47.3064 29.1283 47.3064 29.1283C47.3064 29.1283 47.3064 29.1283 47.3064 29.1283C47.3064 29.1283 47.3064 29.1283 47.3064 29.1283C47.3064 29.1283 47.3064 29.1283 47.3064 29.1283H47.3064H47.3064C47.3064 29.1283 47.3064 29.1283 47.3064 29.1283C47.3064 29.1283 47.3064 29.1283 47.3064 29.1283C47.3064 29.1283 47.3064 29.1283 47.3064 29.1283C47.3064 29.1283 47.3064 29.1283 47.3064 29.1283H47.3064H47.3064H47.3064C47.3064 29.1283 47.3064 29.1283 47.3064 29.1283C47.3064 29.1283 47.3064 29.1283 47.3064 29.1283C47.3064 29.1283 47.3064 29.1283 47.3064 29.1283C47.3064 29.1283 47.3064 29.1283 47.3064 29.1283H47.3064H47.3064C47.3064 29.1283 47.3064 29.1283 47.3064 29.1283C47.3064 29.1283 47.3064 29.1283 47.3064 29.1283C47.3064 29.1283 47.3064 29.1283 47.3064 29.1283C47.3064 29.1283 47.3064 29.1283 47.3064 29.1283H47.3064H47.3064H47.3064C47.3064 29.1283 47.3064 29.1283 47.3064 29.1283C47.3064 29.1283 47.3064 29.1283 47.3064 29.1283C47.3064 29.1283 47.3064 29.1283 47.3064 29.1283C47.3064 29.1283 47.3064 29.1283 47.3064 29.1283H47.3064H47.3065C47.3065 29.1283 47.3065 29.1283 47.3065 29.1283C47.3065 29.1283 47.3065 29.1283 47.3065 29.1283C47.3065 29.1283 47.3065 29.1283 47.3065 29.1283C47.3065 29.1283 47.3065 29.1283 47.3065 29.1283H47.3065H47.3065C47.3065 29.1283 47.3065 29.1283 47.3065 29.1283C47.3065 29.1283 47.3065 29.1283 47.3065 29.1283C47.3065 29.1283 47.3065 29.1283 47.3065 29.1283C47.3065 29.1283 47.3065 29.1283 47.3065 29.1283C47.3065 29.1283 47.3065 29.1283 47.3065 29.1283H47.3065H47.3065C47.3065 29.1283 47.3065 29.1283 47.3065 29.1283C47.3065 29.1283 47.3065 29.1283 47.3065 29.1283C47.3065 29.1283 47.3065 29.1283 47.3065 29.1283C47.3065 29.1283 47.3065 29.1283 47.3065 29.1283H47.3065H47.3065C47.3065 29.1283 47.3065 29.1283 47.3065 29.1283C47.3065 29.1283 47.3065 29.1283 47.3065 29.1283C47.3065 29.1283 47.3065 29.1283 47.3065 29.1283C47.3065 29.1283 47.3065 29.1283 47.3065 29.1283C47.3065 29.1283 47.3065 29.1283 47.3065 29.1283H47.3065H47.3065C47.3065 29.1283 47.3065 29.1283 47.3065 29.1283C47.3065 29.1283 47.3065 29.1283 47.3065 29.1283C47.3065 29.1283 47.3065 29.1283 47.3065 29.1283C47.3065 29.1283 47.3065 29.1283 47.3065 29.1283H47.3065H47.3065C47.3065 29.1283 47.3065 29.1283 47.3065 29.1283C47.3065 29.1283 47.3065 29.1283 47.3065 29.1283C47.3065 29.1283 47.3065 29.1283 47.3065 29.1283C47.3065 29.1283 47.3065 29.1283 47.3065 29.1283H47.3065H47.3065C47.3065 29.1283 47.3065 29.1283 47.3065 29.1283C47.3065 29.1283 47.3065 29.1283 47.3065 29.1283C47.3065 29.1283 47.3065 29.1283 47.3065 29.1283C47.3065 29.1283 47.3065 29.1283 47.3065 29.1283C47.3065 29.1283 47.3065 29.1283 47.3065 29.1283H47.3065H47.3065C47.3065 29.1283 47.3065 29.1283 47.3065 29.1283C47.3065 29.1283 47.3065 29.1283 47.3065 29.1283C47.3065 29.1283 47.3065 29.1283 47.3065 29.1283C47.3065 29.1283 47.3065 29.1283 47.3065 29.1283H47.3065H47.3065C47.3066 29.1283 47.3066 29.1283 47.3066 29.1283C47.3066 29.1283 47.3066 29.1283 47.3066 29.1283C47.3066 29.1283 47.3066 29.1283 47.3066 29.1283C47.3066 29.1283 47.3066 29.1283 47.3066 29.1283C47.3066 29.1283 47.3066 29.1283 47.3066 29.1283H47.3066H47.3066C47.3066 29.1283 47.3066 29.1283 47.3066 29.1283C47.3066 29.1283 47.3066 29.1283 47.3066 29.1283C47.3066 29.1283 47.3066 29.1283 47.3066 29.1283C47.3066 29.1283 47.3066 29.1283 47.3066 29.1283H47.3066H47.3066C47.3066 29.1283 47.3066 29.1283 47.3066 29.1283C47.3066 29.1283 47.3066 29.1283 47.3066 29.1283C47.3066 29.1283 47.3066 29.1283 47.3066 29.1283C47.3066 29.1283 47.3066 29.1283 47.3066 29.1283H47.3066H47.3066H47.3066C47.3066 29.1283 47.3066 29.1283 47.3066 29.1283C47.3066 29.1283 47.3066 29.1283 47.3066 29.1283C47.3066 29.1283 47.3066 29.1283 47.3066 29.1283C47.3066 29.1283 47.3066 29.1283 47.3066 29.1283H47.3066V27.1283ZM47.3063 27.1283C44.4994 27.1283 42.2241 24.8529 42.2241 22.0461H40.2241C40.2241 25.9575 43.3949 29.1283 47.3063 29.1283V27.1283ZM42.2241 22.0461C42.2241 21.8228 42.2384 21.6033 42.2661 21.3884L40.2825 21.1326C40.2439 21.4321 40.2241 21.737 40.2241 22.0461H42.2241Z" fill="#F15A24"/>
<path d="M33.3333 20C33.3333 20.9205 32.5871 21.6667 31.6667 21.6667C30.7462 21.6667 30 20.9205 30 20C30 19.0795 30.7462 18.3333 31.6667 18.3333C32.5871 18.3333 33.3333 19.0795 33.3333 20Z" fill="#F15A24"/>
<path d="M25 26.6667C25 27.5871 24.2538 28.3333 23.3333 28.3333C22.4128 28.3333 21.6666 27.5871 21.6666 26.6667C21.6666 25.7462 22.4128 25 23.3333 25C24.2538 25 25 25.7462 25 26.6667Z" fill="#F15A24"/>
<path d="M31.6667 36.6667C31.6667 37.5871 30.9205 38.3333 30 38.3333C29.0796 38.3333 28.3334 37.5871 28.3334 36.6667C28.3334 35.7462 29.0796 35 30 35C30.9205 35 31.6667 35.7462 31.6667 36.6667Z" fill="#F15A24"/>
<path d="M53.1845 16.6667C55.1077 16.6667 56.6667 15.1743 56.6667 13.3333C56.6667 11.4924 55.1077 10 53.1845 10C51.7636 10 50.5414 10.8147 50 11.9828" stroke="#F15A24" stroke-width="2"/>
<path d="M33.3333 28.3333C33.3333 29.2538 32.5871 30 31.6667 30C30.7462 30 30 29.2538 30 28.3333C30 27.4129 30.7462 26.6667 31.6667 26.6667C32.5871 26.6667 33.3333 27.4129 33.3333 28.3333Z" fill="#F15A24"/>
<path d="M40 33.3333C40 34.2538 39.2538 35 38.3333 35C37.4128 35 36.6666 34.2538 36.6666 33.3333C36.6666 32.4129 37.4128 31.6667 38.3333 31.6667C39.2538 31.6667 40 32.4129 40 33.3333Z" fill="#F15A24"/>
<path d="M55.6666 28.3333C55.6666 41.5882 44.9215 52.3333 31.6666 52.3333C18.4118 52.3333 7.66663 41.5882 7.66663 28.3333C7.66663 15.0785 18.4118 4.33333 31.6666 4.33333C44.9215 4.33333 55.6666 15.0785 55.6666 28.3333Z" stroke="#403E3E" stroke-width="2"/>
<path d="M52.3333 28.3333C52.3333 39.7472 43.0806 49 31.6667 49C20.2528 49 11 39.7472 11 28.3333C11 16.9194 20.2528 7.66667 31.6667 7.66667C43.0806 7.66667 52.3333 16.9194 52.3333 28.3333Z" stroke="#43D3E8" stroke-width="2"/>
<rect x="48.2836" y="53.4996" width="7.99131" height="35.1976" rx="3.99566" transform="rotate(-44 48.2836 53.4996)" stroke="#403E3E" stroke-width="2"/>
<path d="M45.4035 46.9068L50 51.6666M47.408 44.9711L52.0045 49.7309" stroke="#403E3E" stroke-width="2"/>
<ellipse cx="61.6667" cy="15" rx="1.66667" ry="1.66667" stroke="#F15A24" stroke-width="2"/>
</svg>
