<svg width="80" height="80" viewBox="0 0 80 80" fill="none" xmlns="http://www.w3.org/2000/svg">
<path d="M33.3334 16.6667H50" stroke="#403E3E" stroke-width="2"/>
<path d="M29.6666 25H38" stroke="#403E3E" stroke-width="2"/>
<path d="M30 38.3333H45" stroke="#403E3E" stroke-width="2"/>
<rect x="16.6666" y="6.66667" width="46.6667" height="66.6667" rx="4" stroke="#403E3E" stroke-width="2"/>
<path d="M27.0371 25H24.3334C23.7811 25 23.3334 25.4477 23.3334 26V30.6667C23.3334 31.219 23.7811 31.6667 24.3334 31.6667H55.6667C56.219 31.6667 56.6667 31.219 56.6667 30.6667V26C56.6667 25.4477 56.219 25 55.6667 25H40" stroke="#43D3E8" stroke-width="2"/>
<path d="M27.0371 38.3333H24.3334C23.7811 38.3333 23.3334 38.781 23.3334 39.3333V44C23.3334 44.5523 23.7811 45 24.3334 45H55.6667C56.219 45 56.6667 44.5523 56.6667 44V39.3333C56.6667 38.781 56.219 38.3333 55.6667 38.3333H47.4074" stroke="#43D3E8" stroke-width="2"/>
<path d="M23.3334 51.6667H36.6667" stroke="#403E3E" stroke-width="2"/>
<rect x="23.3334" y="60" width="33.3333" height="6.66666" rx="1" stroke="#F15A24" stroke-width="2"/>
</svg>
