<svg width="80" height="80" viewBox="0 0 80 80" fill="none" xmlns="http://www.w3.org/2000/svg">
<path d="M25 21.6675H18C14.2288 21.6675 12.3431 21.6675 11.1716 22.8391C10 24.0106 10 25.8962 10 29.6675V58.3333M56.6667 21.6675H62C65.7712 21.6675 67.6569 21.6675 68.8284 22.8391C70 24.0106 70 25.8962 70 29.6675V58.3333M10 58.3333V58.3333C10 60.8264 10 62.073 10.5362 63.0014C10.8872 63.609 11.3918 64.1136 11.9994 64.4646C12.9279 65.0008 14.1744 65.0008 16.6675 65.0008H63.3325C65.8256 65.0008 67.0721 65.0008 68.0006 64.4646C68.6082 64.1136 69.1128 63.609 69.4638 63.0014C70 62.073 70 60.8264 70 58.3333V58.3333M10 58.3333H70" stroke="#403E3E" stroke-width="2"/>
<path d="M33.3334 65.0008V76.6667H48.3334V65.0008" stroke="#403E3E" stroke-width="2"/>
<path d="M53.3334 76.6667H28.3334" stroke="#403E3E" stroke-width="2"/>
<path d="M48.3334 71.6675H33.3334" stroke="#403E3E" stroke-width="2"/>
<path d="M20 6.66586V6.66586C17.2386 6.66586 15 8.90444 15 11.6659V16.6659L25 16.6667M20 6.66586H52.6667C54.8758 6.66586 56.6667 8.45673 56.6667 10.6659V49.9992H25V16.6667M20 6.66586V6.66586C22.7614 6.66586 25 8.90444 25 11.6659V16.6667" stroke="#403E3E" stroke-width="2"/>
<path d="M34.9991 22.0002L32.8324 25.0002L34.9991 28.0002" stroke="#F96232" stroke-width="2"/>
<path d="M46.6682 27.9997L48.8348 24.9997L46.6682 21.9997" stroke="#F96232" stroke-width="2"/>
<path d="M43.0015 20L38.6682 30" stroke="#F96232" stroke-width="2"/>
<path d="M30 36.6667H51.6667" stroke="#43D3E8" stroke-width="2"/>
<path d="M30 41.6667H41.6667" stroke="#43D3E8" stroke-width="2"/>
</svg>
