<?xml version="1.0" encoding="iso-8859-1"?>
<!-- Generator: Adobe Illustrator 19.0.0, SVG Export Plug-In . SVG Version: 6.00 Build 0)  -->
<svg version="1.1" id="Layer_1" xmlns="http://www.w3.org/2000/svg" xmlns:xlink="http://www.w3.org/1999/xlink" x="0px" y="0px"
	 viewBox="0 0 512 512" style="enable-background:new 0 0 512 512;" xml:space="preserve">
<g>
	<path style="fill:#242D3C;" d="M164.045,512C81.536,512,14.41,444.867,14.41,362.353c0-67.011,43.876-125.053,107.579-143.588
		v-95.567h84.127v95.572c63.708,18.537,107.587,76.575,107.587,143.585C313.702,444.867,246.566,512,164.045,512z M140.273,141.484
		v91.52l-7.007,1.684C74.053,248.899,32.694,301.399,32.694,362.353c0,72.433,58.926,131.361,131.351,131.361
		c72.44,0,131.372-58.931,131.372-131.361c0-60.951-41.357-113.444-100.58-127.665l-7.007-1.682v-91.523H140.273z"/>
	<path style="fill:#242D3C;" d="M73.149,336.978l-17.62-4.884c8.515-30.733,29.75-56.443,58.258-70.541l8.108,16.394
		C98.04,289.736,80.276,311.252,73.149,336.978z"/>
</g>
<path style="fill:#43D3E8;" d="M51.761,362.353c0,61.921,50.378,112.297,112.284,112.297c61.929,0,112.292-50.376,112.292-112.297
	H51.761z"/>
<path style="fill:#FFFFFF;" d="M164.045,455.575v-18.286c31.593,0,59.968-20.012,70.612-49.792l17.221,6.149
	C238.641,430.689,203.341,455.575,164.045,455.575z"/>
<path style="fill:#242D3C;" d="M205.015,141.494h-81.9c-14.139,0-25.644-11.505-25.644-25.636c0-14.118,11.505-25.603,25.644-25.603
	h81.9c14.124,0,25.608,11.484,25.608,25.603C230.623,129.989,219.139,141.494,205.015,141.494z M123.116,108.539
	c-4.055,0-7.357,3.282-7.357,7.319c0,4.05,3.3,7.35,7.357,7.35h81.9c4.037,0,7.322-3.3,7.322-7.35c0-4.037-3.287-7.319-7.322-7.319
	H123.116z"/>
<path style="fill:#F96232;" d="M386.081,315.978v121.708c0,7.713,2.931,15.406,8.781,21.281c5.885,5.873,13.578,8.806,21.279,8.806
	c7.708,0,15.393-2.934,21.286-8.806c5.855-5.878,8.786-13.571,8.786-21.281V315.978H386.081L386.081,315.978z"/>
<g>
	<path style="fill:#242D3C;" d="M416.138,476.918c-10.468,0-20.319-4.076-27.735-11.476c-7.401-7.437-11.466-17.288-11.466-27.756
		V252.639h18.289v185.047c0,5.601,2.171,10.867,6.118,14.833c3.942,3.935,9.208,6.116,14.794,6.116
		c5.591,0,10.857-2.184,14.833-6.139c3.922-3.94,6.098-9.203,6.098-14.807v-185.05h18.286v185.047
		c0,10.476-4.068,20.324-11.453,27.738C436.452,472.842,426.601,476.918,416.138,476.918z"/>
	<rect x="368.515" y="243.507" style="fill:#242D3C;" width="95.258" height="18.286"/>
	<rect x="334.671" y="358.374" style="fill:#242D3C;" width="162.918" height="18.286"/>
	<rect x="468.406" y="347.469" style="fill:#242D3C;" width="18.286" height="164.531"/>
	<rect x="345.603" y="347.469" style="fill:#242D3C;" width="18.286" height="164.531"/>
	<path style="fill:#242D3C;" d="M425.28,287.9h-18.286V34.348c0-4.285-1.669-8.32-4.708-11.372c-3.026-3.018-7.06-4.69-11.351-4.69
		c-4.296,0-8.328,1.667-11.351,4.695c-3.044,3.046-4.721,7.078-4.721,11.364v15.368c0,9.172-3.574,17.797-10.063,24.289
		c-6.505,6.492-15.13,10.061-24.294,10.061c-9.172,0-17.797-3.571-24.284-10.056c-6.49-6.487-10.066-15.112-10.066-24.294V34.345
		c0-4.293-1.667-8.325-4.7-11.359c-3.036-3.031-7.068-4.703-11.359-4.703c-4.293,0-8.328,1.672-11.364,4.705
		c-3.036,3.036-4.708,7.068-4.708,11.354V49.71c0,9.178-3.576,17.805-10.071,24.294c-6.469,6.482-15.096,10.056-24.287,10.056
		c-9.165,0-17.789-3.569-24.284-10.051c-6.495-6.518-10.058-15.14-10.058-24.3V34.342c0-4.288-1.672-8.32-4.708-11.359
		c-3.039-3.031-7.076-4.703-11.364-4.703c-4.291,0-8.32,1.672-11.359,4.705c-3.039,3.036-4.713,7.068-4.713,11.354v253.553h-18.286
		V34.348c0-9.167,3.579-17.797,10.071-24.289C171.466,3.571,180.091,0,189.261,0c9.165,0,17.789,3.571,24.284,10.053
		c6.497,6.492,10.071,15.117,10.071,24.292v15.368c0,4.291,1.672,8.328,4.703,11.372c3.026,3.018,7.066,4.692,11.354,4.692
		c4.296,0,8.328-1.667,11.351-4.695c3.046-3.046,4.721-7.078,4.721-11.369V34.345c0-9.165,3.574-17.789,10.061-24.282
		C272.302,3.571,280.927,0,290.102,0c9.167,0,17.792,3.571,24.284,10.058c6.487,6.484,10.058,15.109,10.058,24.289v15.368
		c0,4.293,1.672,8.325,4.708,11.359c3.036,3.036,7.068,4.708,11.359,4.708c4.291,0,8.328-1.674,11.369-4.71
		c3.031-3.028,4.7-7.063,4.7-11.354V34.35c0-9.167,3.579-17.797,10.074-24.289C373.125,3.574,381.75,0,390.938,0
		c9.165,0,17.789,3.571,24.287,10.053c6.492,6.518,10.056,15.14,10.056,24.292V287.9z"/>
</g>
<g>
</g>
<g>
</g>
<g>
</g>
<g>
</g>
<g>
</g>
<g>
</g>
<g>
</g>
<g>
</g>
<g>
</g>
<g>
</g>
<g>
</g>
<g>
</g>
<g>
</g>
<g>
</g>
<g>
</g>
</svg>
