<?xml version="1.0" encoding="iso-8859-1"?>
<!-- Generator: Adobe Illustrator 19.0.0, SVG Export Plug-In . SVG Version: 6.00 Build 0)  -->
<svg version="1.1" id="Layer_1" xmlns="http://www.w3.org/2000/svg" xmlns:xlink="http://www.w3.org/1999/xlink" x="0px" y="0px"
	 viewBox="0 0 512 512" style="enable-background:new 0 0 512 512;" xml:space="preserve">
<g>
	<polygon style="fill:#242D3C;" points="338.524,498.36 173.476,498.36 173.476,443.346 193.956,443.346 193.956,477.883 
		318.044,477.883 318.044,443.346 338.524,443.346 	"/>
	<rect x="142.461" y="477.875" style="fill:#242D3C;" width="227.072" height="20.477"/>
	<path style="fill:#242D3C;" d="M512,367.091H0V41.226c0-7.342,2.862-14.264,8.051-19.489c5.253-5.23,12.18-8.097,19.54-8.097
		h456.822c7.398,0,14.331,2.875,19.52,8.097C509.135,26.959,512,33.882,512,41.226V367.091z M20.48,346.609h471.04V41.226
		c0-1.889-0.75-3.681-2.102-5.041c-1.329-1.339-3.1-2.066-5.005-2.066H27.592c-1.905,0-3.699,0.74-5.051,2.086
		c-1.316,1.331-2.061,3.123-2.061,5.02V346.609z"/>
</g>
<rect x="43.011" y="56.653" style="fill:#F96232;" width="425.984" height="267.443"/>
<polygon style="fill:#FFFFFF;" points="144.855,286.623 256,94.108 367.145,286.623 "/>
<g>
	<rect x="245.76" y="159.642" style="fill:#242D3C;" width="20.48" height="66.47"/>
	<rect x="245.76" y="244.07" style="fill:#242D3C;" width="20.48" height="17.971"/>
	<path style="fill:#242D3C;" d="M484.413,424.899H27.581c-7.414,0-14.351-2.877-19.53-8.1C2.88,411.651,0,404.718,0,397.322v-50.716
		h512v50.716c0,7.388-2.88,14.321-8.105,19.523C498.77,422.021,491.832,424.899,484.413,424.899z M20.48,367.091v30.234
		c0,1.902,0.737,3.681,2.071,5.005c1.805,1.825,3.93,2.086,5.033,2.086h456.832c1.111,0,3.226-0.264,4.977-2.033
		c1.395-1.385,2.13-3.159,2.13-5.061v-30.234H20.48V367.091z"/>
</g>
<g>
</g>
<g>
</g>
<g>
</g>
<g>
</g>
<g>
</g>
<g>
</g>
<g>
</g>
<g>
</g>
<g>
</g>
<g>
</g>
<g>
</g>
<g>
</g>
<g>
</g>
<g>
</g>
<g>
</g>
</svg>
