<?xml version="1.0" standalone="no"?>
<!DOCTYPE svg PUBLIC "-//W3C//DTD SVG 20010904//EN"
 "http://www.w3.org/TR/2001/REC-SVG-20010904/DTD/svg10.dtd">
<svg version="1.0" xmlns="http://www.w3.org/2000/svg"
 width="260.000000pt" height="260.000000pt" viewBox="0 0 260.000000 260.000000"
 preserveAspectRatio="xMidYMid meet">
<metadata>
Created by potrace 1.11, written by Peter Selinger 2001-2013
</metadata>
<g transform="translate(0.000000,260.000000) scale(0.100000,-0.100000)"
fill="#000000" stroke="none">
<path d="M141 1931 c22 -30 1153 -1279 1159 -1280 6 0 1137 1250 1159 1280 13
19 -6 19 -1159 19 -1153 0 -1172 0 -1159 -19z m602 -173 c141 -39 257 -75 257
-79 0 -5 -40 -69 -88 -144 l-88 -135 -170 201 c-175 210 -190 229 -177 229 4
0 124 -32 266 -72z m1201 -138 c-97 -115 -180 -210 -184 -210 -9 0 -184 269
-179 274 7 6 504 144 522 145 12 1 -43 -71 -159 -209z m-508 -217 c130 -73
144 -78 211 -83 l72 -5 -205 -245 c-113 -135 -209 -246 -213 -248 -4 -1 -101
109 -215 245 l-207 248 63 3 c58 3 75 10 203 81 77 44 143 79 146 80 4 1 69
-34 145 -76z"/>
</g>
</svg>
